<svg width="40" height="40" viewBox="0 0 40 40" fill="none" xmlns="http://www.w3.org/2000/svg">
<g clip-path="url(#clip0_323_814)">
<mask id="path-1-inside-1_323_814" fill="white">
<path fill-rule="evenodd" clip-rule="evenodd" d="M6.66667 29.39C2.6249 26.4319 0 21.6526 0 16.2602C0 7.27992 7.27992 0 16.2602 0C22.0061 0 27.056 2.98042 29.9481 7.47965H39.187V40H6.66667V29.39Z"/>
</mask>
<path d="M6.66667 29.39H7.66667V28.8827L7.25728 28.5831L6.66667 29.39ZM29.9481 7.47965L29.1069 8.02038L29.4021 8.47965H29.9481V7.47965ZM39.187 7.47965H40.187V6.47965H39.187V7.47965ZM39.187 40V41H40.187V40H39.187ZM6.66667 40H5.66667V41H6.66667V40ZM7.25728 28.5831C3.46176 25.8051 1 21.3202 1 16.2602H-1C-1 21.9849 1.78805 27.0586 6.07605 30.197L7.25728 28.5831ZM1 16.2602C1 7.83221 7.83221 1 16.2602 1V-1C6.72764 -1 -1 6.72764 -1 16.2602H1ZM16.2602 1C21.6517 1 26.391 3.79528 29.1069 8.02038L30.7893 6.93893C27.721 2.16556 22.3606 -1 16.2602 -1V1ZM29.9481 8.47965H39.187V6.47965H29.9481V8.47965ZM38.187 7.47965V40H40.187V7.47965H38.187ZM39.187 39H6.66667V41H39.187V39ZM7.66667 40V29.39H5.66667V40H7.66667Z" fill="black" mask="url(#path-1-inside-1_323_814)"/>
<mask id="mask0_323_814" style="mask-type:alpha" maskUnits="userSpaceOnUse" x="6" y="7" width="34" height="33">
<rect x="6.66675" y="7.47974" width="32.5203" height="32.5203" fill="#D9D9D9"/>
</mask>
<g mask="url(#mask0_323_814)">
<path d="M18.7079 48.0487C18.5453 44.7967 20.6103 38 30.1713 36.8292C42.1225 35.3658 47.8949 29.8374 48.7892 28.13C49.6835 26.4227 53.7485 22.1951 56.2688 21.7886" stroke="black"/>
<path d="M47.9674 16.26C45.8536 17.9402 41.3008 22.0161 40 24.8779C38.3739 28.4551 32.5203 34.1462 27.9674 35.1218C23.4146 36.0974 14.6341 36.7478 11.7073 39.3494C9.36582 41.4307 3.9024 43.2519 1.46338 43.9023" stroke="black"/>
<path d="M4.71558 36.4482C5.25758 34.768 8.32533 31.0499 16.2603 29.619C26.179 27.8303 29.2684 26.8547 32.1953 23.6027C35.1221 20.3507 33.6587 15.6352 39.3497 11.8954C43.9026 8.90351 49.8104 9.45636 52.1953 10.1068" stroke="black"/>
</g>
<mask id="path-7-inside-2_323_814" fill="white">
<path fill-rule="evenodd" clip-rule="evenodd" d="M16.2601 -6.10352e-05C7.27986 -6.10352e-05 -6.10352e-05 7.27986 -6.10352e-05 16.2601C-6.10352e-05 25.2403 7.27986 32.5203 16.2601 32.5203C19.2628 32.5203 22.0755 31.7063 24.4894 30.2871C23.0047 30.9894 21.345 31.3822 19.5936 31.3822C13.2625 31.3822 8.13014 26.2498 8.13014 19.9187C8.13014 13.5877 13.2625 8.45533 19.5936 8.45533C25.9246 8.45533 31.057 13.5877 31.057 19.9187C31.057 22.0482 30.4763 24.0421 29.4648 25.7506C31.3876 23.0799 32.5203 19.8023 32.5203 16.2601C32.5203 7.27986 25.2403 -6.10352e-05 16.2601 -6.10352e-05Z"/>
</mask>
<path d="M24.4894 30.2871L24.9962 31.1491L24.0618 29.3831L24.4894 30.2871ZM29.4648 25.7506L28.6043 25.2411L30.2763 26.3349L29.4648 25.7506ZM0.999939 16.2601C0.999939 7.83215 7.83215 0.999939 16.2601 0.999939V-1.00006C6.72758 -1.00006 -1.00006 6.72758 -1.00006 16.2601H0.999939ZM16.2601 31.5203C7.83215 31.5203 0.999939 24.6881 0.999939 16.2601H-1.00006C-1.00006 25.7926 6.72758 33.5203 16.2601 33.5203V31.5203ZM23.9826 29.425C21.7181 30.7564 19.0798 31.5203 16.2601 31.5203V33.5203C19.4459 33.5203 22.4329 32.6562 24.9962 31.1491L23.9826 29.425ZM24.0618 29.3831C22.708 30.0235 21.194 30.3822 19.5936 30.3822V32.3822C21.496 32.3822 23.3014 31.9552 24.917 31.1911L24.0618 29.3831ZM19.5936 30.3822C13.8148 30.3822 9.13014 25.6975 9.13014 19.9187H7.13014C7.13014 26.8021 12.7102 32.3822 19.5936 32.3822V30.3822ZM9.13014 19.9187C9.13014 14.14 13.8148 9.45533 19.5936 9.45533V7.45533C12.7102 7.45533 7.13014 13.0354 7.13014 19.9187H9.13014ZM19.5936 9.45533C25.3723 9.45533 30.057 14.14 30.057 19.9187H32.057C32.057 13.0354 26.4769 7.45533 19.5936 7.45533V9.45533ZM30.057 19.9187C30.057 21.8641 29.527 23.6826 28.6043 25.2411L30.3252 26.2601C31.4256 24.4015 32.057 22.2323 32.057 19.9187H30.057ZM31.5203 16.2601C31.5203 19.5857 30.4576 22.6601 28.6532 25.1663L30.2763 26.3349C32.3176 23.4997 33.5203 20.0189 33.5203 16.2601H31.5203ZM16.2601 0.999939C24.6881 0.999939 31.5203 7.83215 31.5203 16.2601H33.5203C33.5203 6.72758 25.7926 -1.00006 16.2601 -1.00006V0.999939Z" fill="black" mask="url(#path-7-inside-2_323_814)"/>
<path d="M12.1951 20.3798C13.2076 19.4614 15.4967 17.8127 16.5532 18.5654C17.8738 19.5062 17.1475 21.2534 18.4681 21.7238C19.7887 22.1942 21.8719 20.3798 22.7303 20.3798C24.7773 19.775 25.8338 21.5894 27.1544 23.7399" stroke="black"/>
</g>
<defs>
<clipPath id="clip0_323_814">
<rect width="40" height="40" fill="white"/>
</clipPath>
</defs>
</svg>
