<svg width="296" height="296" viewBox="0 0 296 296" fill="none" xmlns="http://www.w3.org/2000/svg">
<path d="M153.513 123.75L153.675 126.821L155.35 124.242L212.489 36.3017L164.9 129.755L163.504 132.496L166.245 131.1L259.698 83.5109L171.758 140.65L169.179 142.325L172.25 142.487L276.978 148L172.25 153.513L169.179 153.675L171.758 155.35L259.698 212.489L166.245 164.9L163.504 163.504L164.9 166.245L212.489 259.698L155.35 171.758L153.675 169.179L153.513 172.25L148 276.978L142.487 172.25L142.325 169.179L140.65 171.758L83.5109 259.698L131.1 166.245L132.496 163.504L129.755 164.9L36.3017 212.489L124.242 155.35L126.821 153.675L123.75 153.513L19.0218 148L123.75 142.487L126.821 142.325L124.242 140.65L36.3017 83.511L129.755 131.1L132.496 132.496L131.1 129.755L83.511 36.3017L140.65 124.242L142.325 126.821L142.487 123.75L148 19.0218L153.513 123.75Z" stroke="#3A302A" stroke-width="2"/>
</svg>
