<svg width="228" height="228" viewBox="0 0 228 228" fill="none" xmlns="http://www.w3.org/2000/svg">
<path d="M124.282 72.0944L124.631 74.3234L126.048 72.5676L167.769 20.8686L143.857 82.8497L143.045 84.9547L145.15 84.1426L207.131 60.2305L155.432 101.952L153.677 103.369L155.906 103.718L221.539 114L155.906 124.282L153.677 124.631L155.432 126.048L207.131 167.769L145.15 143.857L143.045 143.045L143.857 145.15L167.769 207.131L126.048 155.432L124.631 153.677L124.282 155.906L114 221.539L103.718 155.906L103.369 153.677L101.952 155.432L60.2305 207.131L84.1426 145.15L84.9547 143.045L82.8497 143.857L20.8686 167.769L72.5676 126.048L74.3234 124.631L72.0944 124.282L6.46113 114L72.0944 103.718L74.3234 103.369L72.5676 101.952L20.8686 60.2306L82.8497 84.1426L84.9547 84.9547L84.1426 82.8497L60.2306 20.8686L101.952 72.5676L103.369 74.3234L103.718 72.0944L114 6.46113L124.282 72.0944Z" stroke="#3A302A" stroke-width="2"/>
</svg>
