<svg width="195" height="292" viewBox="0 0 195 292" fill="none" xmlns="http://www.w3.org/2000/svg">
<mask id="path-1-inside-1_80_34" fill="white">
<path fill-rule="evenodd" clip-rule="evenodd" d="M194.874 97.1039C194.874 43.4749 151.399 0 97.77 0C44.141 0 0.666077 43.4749 0.666077 97.1039L0.666072 291.312H194.874V97.1039Z"/>
</mask>
<path d="M0.666077 97.1039H2.66608H0.666077ZM0.666072 291.312H-1.33393V293.312H0.666072V291.312ZM194.874 291.312V293.312H196.874V291.312H194.874ZM97.77 2C150.294 2 192.874 44.5795 192.874 97.1039H196.874C196.874 42.3703 152.504 -2 97.77 -2V2ZM2.66608 97.1039C2.66608 44.5795 45.2455 2 97.77 2V-2C43.0364 -2 -1.33392 42.3703 -1.33392 97.1039H2.66608ZM2.66607 291.312L2.66608 97.1039H-1.33392L-1.33393 291.312H2.66607ZM194.874 289.312H0.666072V293.312H194.874V289.312ZM192.874 97.1039V291.312H196.874V97.1039H192.874Z" fill="#3A302A" mask="url(#path-1-inside-1_80_34)"/>
</svg>
