<svg width="544" height="234" viewBox="0 0 544 234" fill="none" xmlns="http://www.w3.org/2000/svg">
<path d="M101.434 203.599C105.688 197.791 105.551 192.454 103.801 183.795L105.162 181.936L101.012 179.967C102.607 190.299 102.177 194.624 99.6808 198.032C96.5043 202.369 91.9479 203.554 87.0685 199.98C82.8862 196.917 81.4278 191.922 83.7916 183.658C85.0275 179.208 87.0782 173.809 89.0003 168.91L87.1415 167.548C85.0078 172.411 82.6942 178.332 80.7569 183.577C76.2899 196.013 77.5739 202.546 83.5375 206.913C90.0433 211.678 96.9527 209.718 101.434 203.599ZM116.501 182.864C118.714 179.843 119.176 176.612 117.791 172.979L115.644 173.311C116.151 175.705 115.992 176.898 115.028 178.214C113.439 180.383 111.251 180.446 106.449 176.929L87.3192 162.919C77.638 155.828 70.5116 157.273 63.9317 166.257C57.5219 175.009 57.0627 183.597 62.3359 189.72C64.4009 190.637 66.2378 190.079 67.5425 188.297C68.9038 186.438 68.9954 184.364 66.4909 181.934L61.3366 176.137L60.9319 181.076C61.5482 176.173 62.8725 172.74 65.0847 169.719C69.5658 163.601 73.7972 162.535 82.3941 168.831L102.531 183.579C108.257 187.297 113.155 187.433 116.501 182.864Z" fill="#3A302A"/>
<path d="M141.883 158.095L144.81 155.76L128.326 104.928L125.4 107.263L140.11 149.562L140.453 150.762L141.729 149.744L101.911 126.002L95.0066 131.51L141.883 158.095ZM92.7655 136.859L100.734 131.607L103.735 129.213L111.452 121.952L109.715 119.775L91.0293 134.683L92.7655 136.859ZM119.406 115.605L127.45 110.294L128.725 109.276L134.265 103.751L132.529 101.575L117.67 113.429L119.406 115.605Z" fill="#3A302A"/>
<path d="M182.437 133.036C189.045 130.179 191.627 125.506 194.499 117.152L196.614 116.238L194.03 112.439C190.179 122.158 187.619 125.67 183.742 127.347C178.807 129.48 174.278 128.197 171.878 122.645C169.82 117.887 171.09 112.841 177.31 106.909C180.628 103.696 185.129 100.077 189.266 96.8238L188.351 94.709C184.05 97.8238 179.058 101.76 174.734 105.304C164.588 113.769 162.39 120.054 165.324 126.839C168.524 134.241 175.476 136.046 182.437 133.036ZM205.925 122.775C209.362 121.289 211.396 118.736 212.039 114.902L210.019 114.102C209.245 116.424 208.505 117.372 207.007 118.019C204.54 119.086 202.62 118.034 200.258 112.57L190.847 90.8059C186.085 79.7914 179.207 77.4312 168.986 81.8508C159.028 86.1562 154.287 93.3314 155.737 101.281C157.054 103.117 158.921 103.565 160.947 102.688C163.062 101.774 164.191 100.031 163.26 96.6681L161.748 89.0593L158.9 93.1148C161.912 89.1974 164.792 86.9065 168.228 85.4206C175.189 82.4107 179.378 83.6325 183.607 93.4133L193.513 116.323C196.571 122.427 200.727 125.023 205.925 122.775Z" fill="#3A302A"/>
<path d="M221.123 117.245L244.407 112.756L243.916 110.211L233.724 111.101L230.802 111.664L220.633 114.7L221.123 117.245ZM228.947 115.737L237.242 114.138C236.182 109.649 234.052 99.1098 232.816 92.6999L230.054 78.3717L227.716 65.2326L226.422 64.6023L211.689 71.3533L212.162 73.8042L220.624 72.5638C221.721 77.2407 222.855 82.1061 224.09 88.516L225.181 94.1719C226.417 100.582 228.263 111.176 228.947 115.737ZM220.437 53.3395C223.454 52.758 225.599 50.1935 224.981 46.9885C224.4 43.9721 221.418 42.2004 218.402 42.782C215.385 43.3635 213.465 46.0802 214.046 49.0966C214.664 52.3016 217.421 53.9211 220.437 53.3395Z" fill="#3A302A"/>
<path d="M254.362 111.584L279.893 111.063L279.84 108.471L268.589 107.645L265.517 107.707L254.309 108.992L254.362 111.584ZM263 111.407L271.542 111.233C271.133 105.288 270.851 96.172 270.712 89.3574L269.905 49.8136L269.983 34.8329L268.526 33.9985L253.324 37.1893L253.377 39.7808L261.833 40.0883L262.842 89.518C262.981 96.3326 263.071 105.453 263 111.407Z" fill="#3A302A"/>
<path d="M303.69 115.016C310.747 116.443 315.534 114.081 322.662 108.862L324.92 109.319L324.968 104.725C316.257 110.506 312.15 111.928 308.01 111.091C302.74 110.025 299.755 106.385 300.953 100.457C301.981 95.3758 305.904 91.9576 314.398 90.6389C318.956 89.8955 324.718 89.4936 329.971 89.1847L330.428 86.9264C325.118 87.0281 318.773 87.41 313.199 87.85C300.036 89.0081 294.643 92.9127 293.178 100.158C291.58 108.062 296.256 113.513 303.69 115.016ZM328.832 120.002C332.502 120.744 335.629 119.81 338.347 117.029L337.145 115.219C335.184 116.684 334.035 117.039 332.435 116.715C329.801 116.183 328.826 114.222 330.006 108.389L334.705 85.1469C337.084 73.385 332.785 67.5206 321.87 65.3134C311.237 63.1633 303.247 66.347 299.899 73.7013C299.932 75.9606 301.209 77.3942 303.374 77.8318C305.632 78.2885 307.554 77.5018 308.709 74.2095L311.812 67.0994L307.158 68.8028C311.868 67.3067 315.54 67.0697 319.21 67.8118C326.643 69.3149 329.385 72.7097 327.273 83.1543L322.326 107.619C321.351 114.376 323.281 118.88 328.832 120.002Z" fill="#3A302A"/>
<path d="M344.081 122.484L356.88 130.318L361.799 123.253L377.38 93.7006L377.743 92.8066L386.832 75.5679L394.071 62.4548L393.201 61.0189L378.525 56.5371L377.316 58.8299L384.565 63.1946L361.507 106.928C359.044 111.599 355.288 118.517 352.696 123.228L345.289 120.191L344.081 122.484ZM371.263 138.444C382.302 144.264 395.049 138.613 402.392 124.686C409.735 110.759 406.873 98.0724 396.513 92.6101C390.824 89.6103 383.491 89.1087 375.463 93.0151L374.359 92.4331L373.994 95.3882C382.568 92.0947 387.49 92.845 391.651 95.0389C399.294 99.0685 401.505 108.048 394.789 120.786C387.267 135.053 378.292 137.049 371.244 133.333C366.743 130.96 363.867 126.947 362.043 119.908L359.82 121.449L360.754 121.942C361.816 130.424 365.998 135.668 371.263 138.444Z" fill="#3A302A"/>
<path d="M398.301 154.115L417.444 171.016L419.16 169.073L411.439 160.847L409.136 158.814L400.017 152.172L398.301 154.115ZM404.778 159.833L411.183 165.488C414.907 160.836 420.871 153.935 425.382 148.826L451.559 119.176L461.758 108.203L461.251 106.602L447.902 98.6591L446.186 100.602L452.202 106.553L419.48 143.616C414.969 148.725 408.861 155.499 404.778 159.833Z" fill="#3A302A"/>
<path d="M438.734 198.921C443.823 205.903 450.736 208.705 458.5 208.273L458.681 206.24C452.639 205.773 447.815 203.231 443.857 197.8C437.58 189.189 438.564 178.968 451.132 169.807C462.381 161.608 472.933 162.232 477.91 169.059C482.546 175.42 480.529 182.593 473.934 187.4C470.754 189.718 468.869 189.904 466.89 187.188L450.435 164.613L447.952 166.423L471.08 198.152C472.548 197.558 474.212 196.582 476.152 195.168C485.228 188.552 487.856 177.489 480.505 167.404C473.041 157.164 458.449 154.257 445.338 163.814C431.374 173.993 430.308 187.362 438.734 198.921Z" fill="#3A302A"/>
</svg>
