<svg width="192" height="86" viewBox="0 0 192 86" fill="none" xmlns="http://www.w3.org/2000/svg">
<path d="M41.3242 69.5731C44.0394 66.8577 44.6332 64.0575 43.926 60.8614L43.1058 60.9463C43.219 63.5485 42.3988 65.6698 40.7301 67.3386C37.5341 70.5349 33.0086 70.4219 28.9356 66.3491C24.7776 62.1915 24.438 57.4397 27.3229 54.5546C28.3977 53.4798 29.6422 52.8009 31.5655 52.4049L29.0199 52.6878L32.2161 54.4696C33.3758 55.2898 34.2243 55.2332 35.0163 54.4412C35.6385 53.8189 35.7233 53.1118 35.2425 52.235C32.3574 50.6512 28.8219 51.2453 26.2764 53.791C22.4016 57.6661 21.7513 64.03 26.786 69.0645C31.5097 73.7878 37.1948 73.7027 41.3242 69.5731Z" fill="#3A302A"/>
<path d="M57.6764 57.2069C60.3637 55.8734 61.3357 53.8728 62.3482 50.3339L63.2081 49.9071L62.0499 48.3831C60.6601 52.5112 59.6716 54.0287 58.0951 54.8111C56.0885 55.8068 54.1758 55.3717 53.0556 53.1143C52.0954 51.1795 52.5133 49.052 54.9719 46.4477C56.282 45.0384 58.0757 43.4339 59.7258 41.9899L59.2991 41.1299C57.5776 42.52 55.5867 44.2671 53.8646 45.8361C49.8284 49.5805 49.0512 52.2436 50.4203 55.0026C51.9138 58.0124 54.8457 58.6116 57.6764 57.2069ZM67.2255 52.4237C68.6229 51.7302 69.4133 50.6235 69.597 49.0141L68.7393 48.7253C68.468 49.7083 68.1805 50.1189 67.5714 50.4212C66.5681 50.919 65.7464 50.523 64.644 48.3015L60.2523 39.4513C58.0297 34.9724 55.1164 34.1407 50.96 36.2033C46.9111 38.2125 45.095 41.3017 45.8722 44.5777C46.4603 45.3129 47.247 45.4584 48.0711 45.0494C48.931 44.6227 49.3626 43.8727 48.9017 42.4939L48.1062 39.3609L47.0097 41.1107C48.1776 39.4148 49.3255 38.3986 50.7229 37.7052C53.5535 36.3005 55.3233 36.7173 57.2969 40.6945L61.9198 50.0106C63.3256 52.4835 65.1114 53.4727 67.2255 52.4237Z" fill="#3A302A"/>
<path d="M75.734 48.431L85.4786 47.3913L85.3641 46.3173L81.1809 46.3212L79.9081 46.457L75.6194 47.3571L75.734 48.431ZM78.9954 48.083L82.5354 47.7053C82.2521 45.8046 81.737 41.3542 81.4484 38.6495L80.7057 31.689L79.935 27.1049L79.3797 26.8021L73.4285 29.0864L73.5346 30.0808L77.056 29.9062C77.3875 31.8822 77.6394 33.8666 77.928 36.5713L78.1869 38.9975C78.4755 41.7022 78.9111 46.1611 78.9954 48.083ZM89.2572 46.9881L99.0019 45.9483L98.8873 44.8744L94.7041 44.8783L93.3915 45.0183L89.1426 45.9142L89.2572 46.9881ZM92.5187 46.6401L96.0188 46.2666C95.7356 44.3659 95.1892 39.9992 94.8921 37.2151L94.4083 32.6808C93.8353 27.3113 91.5422 25.4239 88.0818 25.7931C85.2976 26.0902 82.5824 27.7879 80.0608 31.6774L79.6631 31.7198L80.1611 32.9942C82.6853 29.5067 85.1688 28.2762 86.9586 28.0853C89.2656 27.8391 90.7622 29.0471 91.1781 32.945L91.6704 37.5588C91.9675 40.343 92.3945 44.7224 92.5187 46.6401Z" fill="#3A302A"/>
<path d="M115.644 49.872C119.139 50.7352 122.095 49.776 124.456 47.5573L123.969 46.8602C121.917 48.331 119.696 48.8127 116.978 48.1413C112.667 47.0768 110.242 43.5524 111.795 37.2614C113.186 31.6306 116.72 29.0011 120.137 29.8451C123.321 30.6315 124.6 33.4607 123.785 36.7615C123.392 38.3537 122.84 38.9179 121.481 38.5822L110.181 35.7914L109.874 37.034L125.757 40.9566C126.065 40.3736 126.335 39.6162 126.575 38.6453C127.697 34.1018 125.57 29.8684 120.522 28.6216C115.396 27.3556 109.962 30.3398 108.341 36.9026C106.614 43.8926 109.858 48.443 115.644 49.872Z" fill="#3A302A"/>
<path d="M129.564 54.1008L138.831 59.3301L139.362 58.3895L135.502 55.7062L134.387 55.0771L130.095 53.1602L129.564 54.1008ZM132.7 55.8701L135.8 57.6198C136.914 55.401 138.747 52.0719 140.143 49.5986L148.242 35.2463L151.449 29.8905L151.103 29.2821L144.974 27.2014L144.444 28.142L147.411 30.0461L137.286 47.9865C135.891 50.4599 133.988 53.7496 132.7 55.8701Z" fill="#3A302A"/>
<path d="M151.788 70.9591C154.333 73.5047 157.359 74.2119 160.527 73.5332L160.471 72.6847C157.953 72.8826 155.804 72.1471 153.824 70.1672C150.685 67.0275 150.43 62.7566 155.012 58.1747C159.114 54.0736 163.498 53.6495 165.987 56.1386C168.306 58.458 167.938 61.541 165.534 63.945C164.374 65.1047 163.611 65.3026 162.621 64.3126L154.39 56.0816L153.485 56.9867L165.053 68.5554C165.619 68.216 166.241 67.7069 166.948 66.9998C170.257 63.6906 170.625 58.9672 166.948 55.2901C163.215 51.5564 157.021 51.3017 152.241 56.0815C147.149 61.1725 147.573 66.7446 151.788 70.9591Z" fill="#3A302A"/>
</svg>
