<svg width="453" height="234" viewBox="0 0 453 234" fill="none" xmlns="http://www.w3.org/2000/svg">
<path d="M10.4338 203.599C14.688 197.791 14.5506 192.454 12.8008 183.795L14.1622 181.936L10.0115 179.967C11.6075 190.299 11.1766 194.624 8.6808 198.032C5.5043 202.369 0.947876 203.554 -3.93146 199.98C-8.11376 196.917 -9.57223 191.922 -7.20843 183.658C-5.97253 179.208 -3.92178 173.809 -1.99975 168.91L-3.85855 167.548C-5.9922 172.411 -8.30584 178.332 -10.2431 183.577C-14.7101 196.013 -13.4261 202.546 -7.46247 206.913C-0.956687 211.678 5.95268 209.718 10.4338 203.599ZM25.5015 182.864C27.7137 179.843 28.1762 176.612 26.7908 172.979L24.644 173.311C25.1513 175.705 24.992 176.898 24.0277 178.214C22.4395 180.383 20.2512 180.446 15.4493 176.929L-3.68076 162.919C-13.362 155.828 -20.4884 157.273 -27.0683 166.257C-33.4781 175.009 -33.9373 183.597 -28.6641 189.72C-26.5991 190.637 -24.7622 190.079 -23.4575 188.297C-22.0962 186.438 -22.0046 184.364 -24.5091 181.934L-29.6634 176.137L-30.0681 181.076C-29.4518 176.173 -28.1275 172.74 -25.9153 169.719C-21.4342 163.601 -17.2028 162.535 -8.60587 168.831L11.5311 183.579C17.2569 187.297 22.1548 187.433 25.5015 182.864Z" fill="#3A302A"/>
<path d="M50.8828 158.095L53.8096 155.76L37.3264 104.928L34.3996 107.263L49.1102 149.562L49.4535 150.762L50.7292 149.744L10.9107 126.002L4.00663 131.51L50.8828 158.095ZM1.76549 136.859L9.73371 131.607L12.7355 129.213L20.4516 121.952L18.7153 119.775L0.0292791 134.683L1.76549 136.859ZM28.4063 115.605L36.4495 110.294L37.7253 109.276L43.2651 103.751L41.5288 101.575L26.67 113.429L28.4063 115.605Z" fill="#3A302A"/>
<path d="M91.4367 133.036C98.0454 130.179 100.627 125.506 103.499 117.152L105.614 116.238L103.03 112.439C99.1792 122.158 96.619 125.67 92.7419 127.347C87.8075 129.48 83.2779 128.197 80.8776 122.645C78.8202 117.887 80.0897 112.841 86.3103 106.909C89.6278 103.696 94.1289 100.077 98.2656 96.8238L97.3512 94.709C93.0502 97.8238 88.0585 101.76 83.7336 105.304C73.5883 113.769 71.3899 120.054 74.3237 126.839C77.5241 134.241 84.4756 136.046 91.4367 133.036ZM114.925 122.775C118.362 121.289 120.396 118.736 121.039 114.902L119.019 114.102C118.245 116.424 117.505 117.372 116.007 118.019C113.54 119.086 111.62 118.034 109.258 112.57L99.8471 90.8059C95.0846 79.7914 88.207 77.4312 77.9855 81.8508C68.0285 86.1562 63.2867 93.3314 64.7368 101.281C66.0537 103.117 67.9207 103.565 69.9474 102.688C72.0622 101.774 73.191 100.031 72.26 96.6681L70.748 89.0593L67.8996 93.1148C70.9123 89.1974 73.7916 86.9065 77.2281 85.4206C84.1893 82.4107 88.3782 83.6325 92.6074 93.4133L102.513 116.323C105.571 122.427 109.727 125.023 114.925 122.775Z" fill="#3A302A"/>
<path d="M130.123 117.245L153.407 112.756L152.916 110.211L142.724 111.101L139.802 111.664L129.633 114.7L130.123 117.245ZM137.947 115.737L146.242 114.138C145.182 109.649 143.052 99.1098 141.816 92.6999L139.054 78.3717L136.716 65.2326L135.422 64.6023L120.689 71.3533L121.162 73.8042L129.624 72.5638C130.721 77.2407 131.855 82.1061 133.09 88.516L134.181 94.1719C135.417 100.582 137.263 111.176 137.947 115.737ZM129.437 53.3395C132.454 52.758 134.599 50.1935 133.981 46.9885C133.4 43.9721 130.418 42.2004 127.402 42.782C124.385 43.3635 122.465 46.0802 123.046 49.0966C123.664 52.3016 126.421 53.9211 129.437 53.3395Z" fill="#3A302A"/>
<path d="M163.362 111.584L188.893 111.063L188.84 108.471L177.589 107.645L174.517 107.707L163.309 108.992L163.362 111.584ZM172 111.407L180.542 111.233C180.133 105.288 179.851 96.172 179.712 89.3574L178.905 49.8136L178.983 34.8329L177.526 33.9985L162.324 37.1893L162.377 39.7808L170.833 40.0883L171.842 89.518C171.981 96.3326 172.071 105.453 172 111.407Z" fill="#3A302A"/>
<path d="M212.69 115.016C219.747 116.443 224.534 114.081 231.662 108.862L233.92 109.319L233.968 104.725C225.257 110.506 221.15 111.928 217.01 111.091C211.74 110.025 208.755 106.385 209.953 100.457C210.981 95.3758 214.904 91.9576 223.398 90.6389C227.956 89.8955 233.718 89.4936 238.971 89.1847L239.428 86.9264C234.118 87.0281 227.773 87.41 222.199 87.85C209.036 89.0081 203.643 92.9127 202.178 100.158C200.58 108.062 205.256 113.513 212.69 115.016ZM237.832 120.002C241.502 120.744 244.629 119.81 247.347 117.029L246.145 115.219C244.184 116.684 243.035 117.039 241.435 116.715C238.801 116.183 237.826 114.222 239.006 108.389L243.705 85.1469C246.084 73.385 241.785 67.5206 230.87 65.3134C220.237 63.1633 212.247 66.347 208.899 73.7013C208.932 75.9606 210.209 77.3942 212.374 77.8318C214.632 78.2885 216.554 77.5018 217.709 74.2095L220.812 67.0994L216.158 68.8028C220.868 67.3067 224.54 67.0697 228.21 67.8118C235.643 69.3149 238.385 72.7097 236.273 83.1543L231.326 107.619C230.351 114.376 232.281 118.88 237.832 120.002Z" fill="#3A302A"/>
<path d="M253.081 122.484L265.88 130.318L270.799 123.253L286.38 93.7006L286.743 92.8066L295.832 75.5679L303.071 62.4548L302.201 61.0189L287.525 56.5371L286.316 58.8299L293.565 63.1946L270.507 106.928C268.044 111.599 264.288 118.517 261.696 123.228L254.289 120.191L253.081 122.484ZM280.263 138.444C291.302 144.264 304.049 138.613 311.392 124.686C318.735 110.759 315.873 98.0724 305.513 92.6101C299.824 89.6103 292.491 89.1087 284.463 93.0151L283.359 92.4331L282.994 95.3882C291.568 92.0947 296.49 92.845 300.651 95.0389C308.294 99.0685 310.505 108.048 303.789 120.786C296.267 135.053 287.292 137.049 280.244 133.333C275.743 130.96 272.867 126.947 271.043 119.908L268.82 121.449L269.754 121.942C270.816 130.424 274.998 135.668 280.263 138.444Z" fill="#3A302A"/>
<path d="M307.301 154.115L326.444 171.016L328.16 169.073L320.439 160.847L318.136 158.814L309.017 152.172L307.301 154.115ZM313.778 159.833L320.183 165.488C323.907 160.836 329.871 153.935 334.382 148.826L360.559 119.176L370.758 108.203L370.251 106.602L356.902 98.6591L355.186 100.602L361.202 106.553L328.48 143.616C323.969 148.725 317.861 155.499 313.778 159.833Z" fill="#3A302A"/>
<path d="M347.734 198.921C352.823 205.903 359.736 208.705 367.5 208.273L367.681 206.24C361.639 205.773 356.815 203.231 352.857 197.8C346.58 189.189 347.564 178.968 360.132 169.807C371.381 161.608 381.933 162.232 386.91 169.059C391.546 175.42 389.529 182.593 382.934 187.4C379.754 189.718 377.869 189.904 375.89 187.188L359.435 164.613L356.952 166.423L380.08 198.152C381.548 197.558 383.212 196.582 385.152 195.168C394.228 188.552 396.856 177.489 389.505 167.404C382.041 157.164 367.449 154.257 354.338 163.814C340.374 173.993 339.308 187.362 347.734 198.921Z" fill="#3A302A"/>
</svg>
