<svg width="237" height="96" viewBox="0 0 237 96" fill="none" xmlns="http://www.w3.org/2000/svg">
<path d="M31.8424 86.0132L39.1561 79.4901L38.4372 78.6841L35.0398 81.1247L34.0845 81.9767L31.1235 85.2072L31.8424 86.0132ZM34.2903 83.8299L36.947 81.4603C35.6094 80.0807 32.5975 76.7639 30.787 74.734L26.0478 69.4204L22.8303 66.2336L22.2026 66.311L18.697 71.6352L19.3627 72.3815L22.1227 70.1877C23.5435 71.6004 24.9046 73.0664 26.6885 75.0665L28.3392 76.9173C30.1497 78.9472 33.1018 82.3172 34.2903 83.8299ZM41.6636 77.2536L48.9176 70.7838L48.1987 69.9778L44.8311 72.3918L43.846 73.2704L40.9447 76.4476L41.6636 77.2536ZM44.1114 75.0704L46.6787 72.7807C45.341 71.401 42.3824 68.144 40.5187 66.0544L37.4835 62.6513C33.8891 58.6213 30.9854 58.3704 28.3883 60.6867C26.2092 62.6304 25.3273 65.668 25.6267 69.8497L25.2983 70.1425L26.4988 70.9477C26.4819 66.7822 27.4081 64.4553 28.9305 63.0975C30.5126 61.6864 32.5127 61.8856 35.0953 64.7812L38.1305 68.1843C39.9943 70.2739 42.8932 73.5843 44.1114 75.0704ZM51.4251 68.5473L58.7089 62.0509L57.99 61.2449L54.5627 63.7121L53.5776 64.5907L50.7062 67.7413L51.4251 68.5473ZM53.8431 66.3907L56.4402 64.0743C55.1025 62.6947 52.1439 59.4377 50.2802 57.348L47.2183 53.9151C43.6506 49.915 40.7469 49.6641 38.0304 52.0869C35.8811 54.0039 34.8395 56.8624 35.1122 61.0143L34.7839 61.3071L36.0409 62.1156C36.0175 58.063 37.08 55.8289 38.5427 54.5243C40.2741 52.9801 42.1379 53.0866 44.827 56.1016L47.8622 59.5047C49.7259 61.5943 52.6248 64.9046 53.8431 66.3907Z" fill="#3A302A"/>
<path d="M70.3577 57.8778C73.1016 56.6649 74.1616 54.7095 75.3303 51.2191L76.2083 50.831L75.119 49.257C73.5471 53.3193 72.4922 54.7914 70.8824 55.5029C68.8336 56.4085 66.9421 55.8888 65.9233 53.584C65.0501 51.6083 65.562 49.5015 68.1339 47.009C69.5054 45.6594 71.3686 44.1361 73.0812 42.7668L72.6931 41.8888C70.9116 43.201 68.845 44.8579 67.0549 46.3489C62.8563 49.9103 61.9615 52.5362 63.2067 55.3532C64.565 58.4264 67.4675 59.1553 70.3577 57.8778ZM80.1099 53.5235C81.5367 52.8929 82.3755 51.8224 82.6306 50.2227L81.7865 49.8961C81.4718 50.8661 81.1664 51.2635 80.5444 51.5384C79.52 51.9912 78.7168 51.559 77.7142 49.2907L73.7199 40.2541C71.6986 35.6809 68.8251 34.7206 64.5811 36.5965C60.447 38.4238 58.4954 41.4293 59.1263 44.7366C59.6812 45.4972 60.4606 45.6775 61.3021 45.3055C62.1801 44.9174 62.6446 44.1873 62.2454 42.7894L61.5898 39.6242L60.4167 41.3236C61.6588 39.6812 62.8507 38.717 64.2776 38.0864C67.1678 36.8089 68.9173 37.3039 70.7122 41.3649L74.9167 50.8771C76.2112 53.41 77.9513 54.4776 80.1099 53.5235Z" fill="#3A302A"/>
<path d="M99.4982 48.5748C103.278 47.8958 105.364 45.9361 106.608 42.9084L105.886 42.5097C104.494 44.7107 102.609 45.9839 100.286 46.4012C95.8375 47.2004 92.1867 44.5237 91.1683 38.8545C90.1287 33.0671 92.563 28.9722 96.5787 28.2508C98.0748 27.982 99.484 28.1353 101.289 28.9083L99.0378 27.6871L100.644 30.9748C101.128 32.3103 101.857 32.7484 102.959 32.5503C103.826 32.3947 104.299 31.8627 104.405 30.8683C102.941 27.9207 99.6988 26.3898 96.1555 27.0263C90.7619 27.9952 86.5943 32.8486 87.8532 39.8564C89.0343 46.4311 93.7502 49.6074 99.4982 48.5748Z" fill="#3A302A"/>
<path d="M120.536 46.9728C123.53 47.1547 125.369 45.904 128.01 43.3394L128.968 43.3977L128.723 41.4993C125.461 44.3868 123.849 45.2105 122.092 45.1037C119.856 44.9678 118.414 43.6379 118.567 41.1226C118.698 38.9665 120.12 37.3298 123.549 36.2959C125.387 35.7263 127.741 35.2282 129.891 34.7978L129.949 33.8396C127.764 34.1877 125.168 34.7112 122.893 35.2141C117.528 36.451 115.528 38.3732 115.341 41.4475C115.137 44.8013 117.381 46.7811 120.536 46.9728ZM131.198 47.5806C132.755 47.6753 133.992 47.1092 134.953 45.8051L134.353 45.1275C133.628 45.8448 133.174 46.0577 132.496 46.0164C131.378 45.9485 130.862 45.1959 131.013 42.7204L131.612 32.8586C131.915 27.8678 129.803 25.6957 125.172 25.4143C120.66 25.1401 117.547 26.9145 116.589 30.1424C116.733 31.0728 117.343 31.5908 118.261 31.6466C119.219 31.7048 119.967 31.2694 120.254 29.8441L121.124 26.7312L119.302 27.7025C121.159 26.8135 122.661 26.504 124.218 26.5986C127.372 26.7903 128.699 28.0331 128.43 32.4649L127.799 42.8457C127.787 45.6902 128.843 47.4375 131.198 47.5806Z" fill="#3A302A"/>
<path d="M141.168 48.6343L151.299 51.6148L151.604 50.5787L147.403 48.8425L145.83 48.3796L141.473 47.5982L141.168 48.6343ZM144.315 49.5601L147.73 50.5648C148.196 48.7003 149.422 44.3912 150.189 41.7818L151.883 36.0257L153.206 30.536L152.809 30.0438L146.436 29.8786L146.154 30.8379L149.474 32.0233C149.025 33.9758 148.499 35.9058 147.731 38.5152L147.043 40.856C146.275 43.4654 144.972 47.752 144.315 49.5601ZM151.167 38.3168C153.616 34.9513 155.996 33.5249 158.908 33.5477L157.154 32.99L157.788 34.0939C158.4 35.2745 158.944 35.9766 159.903 36.2588C161.284 36.6652 162.135 36.04 162.531 34.6969C162.513 33.4825 161.465 32.5072 159.969 32.0669C157.283 31.2767 153.896 32.8656 151.601 36.2762L150.91 36.073L151.167 38.3168Z" fill="#3A302A"/>
<path d="M171.365 61.0911C175.958 63.6958 181.879 62.8232 185.431 56.5602C188.983 50.2973 186.608 44.6738 182.119 42.1283C177.631 39.5828 171.62 40.4508 168.069 46.7137C164.517 52.9766 166.737 58.4666 171.365 61.0911ZM171.977 60.0125C168.532 58.0589 168.067 53.9325 171.146 48.5047C174.224 43.0768 178.043 41.2882 181.488 43.2417C184.932 45.1953 185.358 49.3912 182.28 54.8191C179.201 60.247 175.421 61.966 171.977 60.0125Z" fill="#3A302A"/>
<path d="M186.299 69.6725L193.264 76.567L194.023 75.7995L191.377 72.5601L190.467 71.6596L187.059 68.9049L186.299 69.6725ZM188.63 71.98L191.16 74.4846C192.454 73.0638 195.577 69.8519 197.491 67.9189L202.416 62.9442L205.481 59.4497L205.365 58.828L199.833 55.6598L199.13 56.3704L201.49 58.989C200.169 60.4948 198.79 61.9442 196.876 63.8773L195.16 65.6113C193.246 67.5443 190.066 70.7 188.63 71.98ZM195.964 79.2404L202.929 86.135L203.689 85.3674L201.042 82.1281L200.104 81.1994L196.724 78.4729L195.964 79.2404ZM198.295 81.548L200.797 84.0244C202.091 82.6036 205.129 79.4204 207.099 77.4305L210.307 74.1899C214.106 70.3523 214.12 67.3823 211.646 64.934C209.657 62.9642 206.625 61.9329 202.017 62.4371L201.733 62.1556L201.06 63.347C205.358 63.099 207.881 64.2459 209.16 65.5123C210.809 67.1445 210.819 69.0678 208.061 71.8536L204.797 75.1511C202.827 77.141 199.703 80.2398 198.295 81.548Z" fill="#3A302A"/>
</svg>
