<svg width="278" height="106" viewBox="0 0 278 106" fill="none" xmlns="http://www.w3.org/2000/svg">
<path d="M41.2033 92.1688C44.7056 88.0586 44.4817 84.1892 41.8328 81.9321C39.7016 80.1162 37.2893 80.1102 33.6035 82.2773L31.7583 83.3327C29.1338 84.9326 27.5334 85.1456 26.0416 83.8744C24.4584 82.5254 24.3132 80.3521 26.3107 78.0078C27.3744 76.7595 28.6477 76.0052 30.5943 75.5092L29.5896 74.6531L28.6331 75.4672L32.7616 77.7763L33.7993 76.5584L30.6453 73.6608C28.4348 74.4048 26.8671 75.3813 25.3365 77.1776C22.1974 80.8616 22.4078 84.5618 24.9653 86.741C27.2488 88.6867 29.9115 88.2754 32.8654 86.5357L34.7929 85.4454C37.7118 83.6233 39.2433 83.6144 40.7047 84.8597C42.4401 86.3384 42.4601 88.7203 40.1512 91.43C38.6466 93.1959 37.2345 93.9896 35.4875 94.498L36.5836 95.432L37.6044 94.3573L33.1759 91.8452L32.0604 93.1544L35.6531 96.2157C37.8456 95.2461 39.5171 94.1478 41.2033 92.1688Z" fill="#3A302A"/>
<path d="M51.1369 80.0931L58.8957 74.1064L58.236 73.2514L54.6736 75.4443L53.6602 76.2262L50.4771 79.238L51.1369 80.0931ZM53.7337 78.0894L56.5522 75.9146C55.2843 74.4678 52.5159 70.9454 50.8543 68.7919L46.6758 63.3765L46.3509 63.0209L40.7552 55.7688L37.0383 50.7552L36.3433 50.8367L32.1044 55.6231L32.7642 56.4781L35.6732 54.4862L48.2574 70.7956C49.919 72.9491 52.6241 76.5204 53.7337 78.0894ZM61.9676 71.7362L69.6948 65.7739L69.035 64.9189L65.441 67.1362L64.4276 67.9182L61.3078 70.8811L61.9676 71.7362ZM64.5011 69.7813L67.3513 67.5822C66.0834 66.1354 63.3638 62.6762 61.6533 60.4594L58.8921 56.8808C55.5689 52.5739 52.5954 52.1905 49.8085 54.3408C47.5284 56.1002 46.184 59.0068 46.0931 63.4725L45.3964 64.0101L46.8289 64.6226C47.1298 60.298 48.5629 58.0302 50.0513 56.8818C51.8564 55.4889 53.8273 55.686 56.222 58.7895L59.0565 62.4631C60.767 64.6799 63.4232 68.1879 64.5011 69.7813Z" fill="#3A302A"/>
<path d="M85.4993 58.4309C90.2971 56.2265 93.0496 50.912 90.0436 44.3695C87.0376 37.827 81.0865 36.4675 76.3978 38.6218C71.709 40.7761 68.9004 46.1603 71.9064 52.7028C74.9124 59.2453 80.6651 60.652 85.4993 58.4309ZM84.9816 57.3041C81.3832 58.9575 77.7632 56.923 75.158 51.2529C72.5528 45.5827 73.3338 41.4382 76.9322 39.7849C80.5305 38.1316 84.1839 40.2387 86.7891 45.9088C89.3943 51.579 88.5799 55.6508 84.9816 57.3041Z" fill="#3A302A"/>
<path d="M101.589 51.4174L111.861 48.9698L111.611 47.9192L107.103 48.5L105.507 48.8801L101.338 50.3669L101.589 51.4174ZM104.779 50.6572L108.243 49.832C107.72 47.9829 106.642 43.6341 106.012 40.9882L104.621 35.1516L103.042 29.7301L102.452 29.5004L96.8402 32.5236L97.072 33.4963L100.542 32.875C101.123 34.7927 101.625 36.729 102.256 39.3749L102.821 41.7485C103.452 44.3944 104.451 48.7617 104.779 50.6572ZM105.139 37.4955C105.592 33.3578 106.948 30.9376 109.486 29.5104L107.687 29.8979L108.786 30.5407C109.903 31.2614 110.724 31.6003 111.697 31.3685C113.098 31.0348 113.526 30.0693 113.201 28.7074C112.582 27.6625 111.189 27.3366 109.671 27.6981C106.947 28.3471 104.798 31.4086 104.501 35.5093L103.8 35.6761L105.139 37.4955Z" fill="#3A302A"/>
<path d="M127.288 27.4362L134.669 26.9146L134.565 25.4383L127.184 25.9599L127.288 27.4362ZM131.91 46.8788C134.025 46.7294 135.53 45.9012 136.514 44.5084L135.905 43.8296C134.875 44.5841 134.14 44.9568 132.943 45.0414C131.187 45.1655 130.156 44.1957 129.982 41.7219L128.902 26.44L128.576 19.5658L126.342 19.7237L125.658 26.5088L126.377 25.8966L121.614 26.594L121.702 27.831L125.652 27.5518L126.416 38.3649C126.52 39.8412 126.54 40.6819 126.63 41.9587C126.881 45.5099 128.558 47.1156 131.91 46.8788Z" fill="#3A302A"/>
<path d="M168.126 50.0423C171.871 50.8906 174.556 49.8994 176.883 47.5965L176.373 46.9479C174.233 48.4316 172.001 48.8694 169.699 48.348C165.291 47.3493 162.973 43.4611 164.245 37.8434C165.544 32.1087 169.383 29.287 173.362 30.1884C174.844 30.5242 176.082 31.2148 177.443 32.6305L175.846 30.6281L176.044 34.2821C175.968 35.7005 176.469 36.3881 177.561 36.6355C178.419 36.8299 179.063 36.5245 179.548 35.6501C179.349 32.3649 176.96 29.6912 173.449 28.8959C168.105 27.6851 162.375 30.5295 160.802 37.4735C159.326 43.9884 162.43 48.752 168.126 50.0423Z" fill="#3A302A"/>
<path d="M188.442 56.5516C191.173 57.794 193.338 57.2849 196.722 55.8362L197.596 56.2337L198.047 54.3734C193.968 55.9014 192.167 56.0928 190.565 55.3639C188.526 54.4363 187.656 52.6781 188.699 50.3844C189.594 48.4183 191.508 47.3994 195.079 47.6621C196.999 47.7886 199.376 48.1668 201.538 48.5351L201.935 47.6613C199.77 47.2037 197.159 46.7624 194.855 46.4173C189.403 45.6507 186.847 46.729 185.571 49.5325C184.18 52.5908 185.566 55.243 188.442 56.5516ZM198.18 60.938C199.6 61.5841 200.957 61.4985 202.321 60.625L202.004 59.7774C201.07 60.1876 200.57 60.2238 199.951 59.9422C198.932 59.4784 198.72 58.5911 199.747 56.3338L203.839 47.3408C205.91 42.7897 204.715 40.0052 200.492 38.0837C196.378 36.2118 192.836 36.7535 190.785 39.4243C190.586 40.3445 190.97 41.0465 191.808 41.4275C192.681 41.825 193.536 41.6863 194.314 40.4584L196.242 37.8637L194.192 38.1179C196.245 37.9531 197.758 38.2019 199.178 38.8479C202.054 40.1566 202.848 41.7922 201.009 45.8336L196.702 55.2999C195.672 57.9512 196.032 59.9607 198.18 60.938Z" fill="#3A302A"/>
<path d="M207.326 65.1875L215.397 71.2261L216.044 70.3613L212.784 67.3731L211.76 66.6063L207.973 64.3228L207.326 65.1875ZM210.016 67.2004L212.867 69.333C214.041 67.5636 216.573 64.1127 218.25 61.8707L228.075 48.7391L231.941 43.8386L231.676 43.1909L225.865 40.3417L225.218 41.2065L227.916 43.4753L215.576 59.9698C213.946 62.1478 211.35 65.5508 210.016 67.2004ZM215.651 62.6738L234.976 60.1471L233.375 58.9489L225.088 60.1427L216.809 61.3924L216.681 61.2965L215.651 62.6738ZM220.618 75.1319L225.358 78.6784L226.005 77.8136L223.706 75.7443L225.353 60.9904L222.177 61.3621L220.618 75.1319ZM228.324 56.6189L231.559 59.6391L232.24 59.9983L236.203 62.5136L236.898 61.5848L229.019 55.69L228.324 56.6189Z" fill="#3A302A"/>
<path d="M236.243 91.431C238.608 94.145 241.579 95.0578 244.786 94.5976L244.787 93.7472C242.263 93.7723 240.168 92.8913 238.329 90.7804C235.412 87.4332 235.45 83.1549 240.335 78.8975C244.708 75.0869 249.111 74.9639 251.424 77.6176C253.578 80.0904 253 83.1409 250.437 85.3747C249.201 86.4522 248.425 86.5974 247.506 85.542L239.858 76.7667L238.893 77.6077L249.642 89.9413C250.229 89.6414 250.885 89.1762 251.639 88.5192C255.167 85.4444 255.857 80.7572 252.441 76.837C248.972 72.8564 242.81 72.1781 237.714 76.6195C232.286 81.3499 232.327 86.9379 236.243 91.431Z" fill="#3A302A"/>
</svg>
