<svg width="192" height="288" viewBox="0 0 192 288" fill="none" xmlns="http://www.w3.org/2000/svg">
<mask id="path-1-inside-1_470_465" fill="white">
<path fill-rule="evenodd" clip-rule="evenodd" d="M191.667 95.8333C191.667 42.906 148.761 0 95.8333 0C42.906 0 0 42.906 0 95.8333V287.5H191.667V95.8333Z"/>
</mask>
<path d="M0 287.5H-0.5V288H0V287.5ZM191.667 287.5V288H192.167V287.5H191.667ZM95.8333 -0.5C95.4996 -0.5 95.1662 -0.498303 94.8333 -0.494916L94.8434 0.505033C95.173 0.50168 95.503 0.5 95.8333 0.5V-0.5ZM92.8404 -0.454388C92.1777 -0.434162 91.5167 -0.407243 90.8574 -0.373695L90.9083 0.625013C91.5608 0.591809 92.215 0.565166 92.8709 0.545147L92.8404 -0.454388ZM88.864 -0.251742C88.2014 -0.204365 87.5406 -0.150286 86.8818 -0.0895716L86.9735 0.906209C87.6256 0.846122 88.2796 0.792601 88.9354 0.745712L88.864 -0.251742ZM84.9007 0.113569C84.2395 0.188263 83.5803 0.269652 82.9232 0.357665L83.056 1.34881C83.7063 1.26171 84.3586 1.18117 85.013 1.10725L84.9007 0.113569ZM80.9565 0.64178C80.2982 0.743844 79.642 0.852576 78.9881 0.967903L79.1618 1.9527C79.8089 1.83858 80.4582 1.73098 81.1097 1.62998L80.9565 0.64178ZM77.0333 1.3336C76.3807 1.46271 75.7304 1.5984 75.0826 1.74062L75.2971 2.71736C75.9381 2.57663 76.5815 2.44235 77.2273 2.31459L77.0333 1.3336ZM73.1421 2.18785C72.4966 2.34372 71.8536 2.50608 71.2132 2.67488L71.4681 3.64185C72.1017 3.47482 72.738 3.31415 73.3768 3.15992L73.1421 2.18785ZM69.291 3.20302C68.6529 3.38551 68.0176 3.57441 67.385 3.76966L67.68 4.72518C68.3059 4.53198 68.9346 4.34505 69.566 4.16447L69.291 3.20302ZM65.4862 4.37749C64.8558 4.58658 64.2282 4.80201 63.6036 5.02369L63.9381 5.96609C64.5562 5.74673 65.1772 5.53355 65.801 5.32665L65.4862 4.37749ZM61.7341 5.70925C61.1125 5.94455 60.494 6.1861 59.8787 6.43382L60.2521 7.36148C60.861 7.11635 61.4731 6.87732 62.0882 6.64448L61.7341 5.70925ZM58.0409 7.19593C57.4294 7.45699 56.8211 7.7242 56.2162 7.99747L56.6278 8.9088C57.2265 8.63838 57.8284 8.37396 58.4335 8.11562L58.0409 7.19593ZM54.4114 8.83541C53.8116 9.12153 53.2151 9.41368 52.6222 9.71177L53.0713 10.6052C53.6581 10.3102 54.2483 10.0211 54.8419 9.73799L54.4114 8.83541ZM50.8527 10.6244C50.2657 10.9349 49.6823 11.2513 49.1025 11.5736L49.5883 12.4476C50.162 12.1288 50.7394 11.8156 51.3203 11.5083L50.8527 10.6244ZM47.3717 12.5591C46.7984 12.8935 46.2288 13.2336 45.663 13.5794L46.1846 14.4327C46.7444 14.0904 47.3081 13.7538 47.8755 13.4229L47.3717 12.5591ZM43.974 14.6359C43.415 14.9938 42.8598 15.3572 42.3087 15.7262L42.865 16.5571C43.4104 16.192 43.9598 15.8323 44.5131 15.4782L43.974 14.6359ZM40.6652 16.8512C40.1212 17.2318 39.5814 17.618 39.0457 18.0095L39.6358 18.8168C40.1659 18.4294 40.7002 18.0472 41.2385 17.6705L40.6652 16.8512ZM37.4505 19.2009C36.9226 19.6037 36.399 20.0118 35.8798 20.4251L36.5026 21.2075C37.0165 20.7984 37.5346 20.3945 38.0571 19.9959L37.4505 19.2009ZM34.3352 21.681C33.8243 22.1051 33.3179 22.5344 32.8161 22.9688L33.4706 23.7249C33.9672 23.295 34.4684 22.8701 34.9739 22.4504L34.3352 21.681ZM31.3242 24.2873C30.8314 24.7319 30.3431 25.1816 29.8596 25.6363L30.5445 26.3648C31.0231 25.9149 31.5063 25.4698 31.9941 25.0297L31.3242 24.2873ZM28.423 27.015C27.9489 27.4795 27.4795 27.9488 27.0151 28.4229L27.7294 29.1227C28.1891 28.6535 28.6536 28.189 29.1228 27.7294L28.423 27.015ZM25.6363 29.8595C25.1817 30.3431 24.732 30.8313 24.2873 31.3242L25.0298 31.9941C25.4699 31.5063 25.9149 31.0231 26.3649 30.5445L25.6363 29.8595ZM22.9689 32.816C22.5345 33.3179 22.1052 33.8243 21.681 34.3351L22.4504 34.9739C22.8702 34.4683 23.295 33.9672 23.725 33.4705L22.9689 32.816ZM20.4252 35.8798C20.0118 36.399 19.6037 36.9225 19.201 37.4504L19.996 38.057C20.3946 37.5346 20.7984 37.0164 21.2075 36.5026L20.4252 35.8798ZM18.0095 39.0457C17.618 39.5813 17.2319 40.1211 16.8512 40.6651L17.6705 41.2384C18.0473 40.7001 18.4294 40.1659 18.8169 39.6358L18.0095 39.0457ZM15.7262 42.3086C15.3572 42.8598 14.9938 43.4149 14.636 43.974L15.4782 44.513C15.8324 43.9598 16.192 43.4104 16.5572 42.865L15.7262 42.3086ZM13.5795 45.663C13.2336 46.2287 12.8935 46.7983 12.5591 47.3717L13.423 47.8755C13.7539 47.3081 14.0905 46.7444 14.4327 46.1845L13.5795 45.663ZM11.5736 49.1025C11.2514 49.6822 10.935 50.2656 10.6244 50.8527L11.5084 51.3203C11.8157 50.7393 12.1288 50.162 12.4477 49.5883L11.5736 49.1025ZM9.71179 52.6221C9.41371 53.215 9.12156 53.8115 8.83543 54.4114L9.73802 54.8419C10.0212 54.2483 10.3103 53.658 10.6052 53.0713L9.71179 52.6221ZM7.9975 56.2161C7.72423 56.821 7.45702 57.4293 7.19595 58.0408L8.11565 58.4334C8.37399 57.8283 8.6384 57.2264 8.90883 56.6278L7.9975 56.2161ZM6.43385 59.8786C6.18613 60.494 5.94458 61.1125 5.70927 61.7341L6.6445 62.0881C6.87735 61.473 7.11637 60.861 7.3615 60.252L6.43385 59.8786ZM5.02371 63.6036C4.80203 64.2282 4.5866 64.8557 4.37751 65.4862L5.32667 65.801C5.53357 65.1771 5.74675 64.5561 5.96611 63.9381L5.02371 63.6036ZM3.76967 67.385C3.57443 68.0175 3.38553 68.6529 3.20304 69.2909L4.16449 69.5659C4.34507 68.9345 4.53199 68.3059 4.72519 67.6799L3.76967 67.385ZM2.67489 71.2131C2.5061 71.8535 2.34373 72.4965 2.18787 73.142L3.15993 73.3767C3.31417 72.738 3.47484 72.1017 3.64187 71.468L2.67489 71.2131ZM1.74063 75.0826C1.59842 75.7304 1.46272 76.3806 1.33361 77.0332L2.3146 77.2273C2.44236 76.5815 2.57664 75.938 2.71737 75.297L1.74063 75.0826ZM0.967911 78.9881C0.852583 79.642 0.74385 80.2981 0.641785 80.9565L1.62998 81.1097C1.73098 80.4582 1.83858 79.8088 1.95271 79.1617L0.967911 78.9881ZM0.35767 82.9232C0.269656 83.5803 0.188266 84.2395 0.113571 84.9007L1.10725 85.0129C1.18117 84.3586 1.26172 83.7062 1.34882 83.0559L0.35767 82.9232ZM-0.0895698 86.8817C-0.150285 87.5406 -0.204364 88.2014 -0.251741 88.864L0.745713 88.9354C0.792602 88.2795 0.846123 87.6256 0.906211 86.9735L-0.0895698 86.8817ZM-0.373695 90.8574C-0.407243 91.5167 -0.434162 92.1777 -0.454388 92.8404L0.545147 92.8709C0.565165 92.215 0.591809 91.5608 0.625012 90.9083L-0.373695 90.8574ZM-0.494916 94.8333C-0.498303 95.1662 -0.5 95.4996 -0.5 95.8333H0.5C0.5 95.503 0.50168 95.173 0.505032 94.8434L-0.494916 94.8333ZM-0.5 95.8333V96.8316H0.5V95.8333H-0.5ZM-0.5 98.8281V100.825H0.5V98.8281H-0.5ZM-0.5 102.821V104.818H0.5V102.821H-0.5ZM-0.5 106.814V108.811H0.5V106.814H-0.5ZM-0.5 110.807V112.804H0.5V110.807H-0.5ZM-0.5 114.8V116.797H0.5V114.8H-0.5ZM-0.5 118.793V120.79H0.5V118.793H-0.5ZM-0.5 122.786V124.783H0.5V122.786H-0.5ZM-0.5 126.78V128.776H0.5V126.78H-0.5ZM-0.5 130.773V132.769H0.5V130.773H-0.5ZM-0.5 134.766V136.762H0.5V134.766H-0.5ZM-0.5 138.759V140.755H0.5V138.759H-0.5ZM-0.5 142.752V144.748H0.5V142.752H-0.5ZM-0.5 146.745V148.741H0.5V146.745H-0.5ZM-0.5 150.738V152.734H0.5V150.738H-0.5ZM-0.5 154.731V156.727H0.5V154.731H-0.5ZM-0.5 158.724V160.721H0.5V158.724H-0.5ZM-0.5 162.717V164.714H0.5V162.717H-0.5ZM-0.5 166.71V168.707H0.5V166.71H-0.5ZM-0.5 170.703V172.7H0.5V170.703H-0.5ZM-0.5 174.696V176.693H0.5V174.696H-0.5ZM-0.5 178.689V180.686H0.5V178.689H-0.5ZM-0.5 182.682V184.679H0.5V182.682H-0.5ZM-0.5 186.675V188.672H0.5V186.675H-0.5ZM-0.5 190.668V192.665H0.5V190.668H-0.5ZM-0.5 194.661V196.658H0.5V194.661H-0.5ZM-0.5 198.655V200.651H0.5V198.655H-0.5ZM-0.5 202.648V204.644H0.5V202.648H-0.5ZM-0.5 206.641V208.637H0.5V206.641H-0.5ZM-0.5 210.634V212.63H0.5V210.634H-0.5ZM-0.5 214.627V216.623H0.5V214.627H-0.5ZM-0.5 218.62V220.616H0.5V218.62H-0.5ZM-0.5 222.613V224.609H0.5V222.613H-0.5ZM-0.5 226.606V228.602H0.5V226.606H-0.5ZM-0.5 230.599V232.596H0.5V230.599H-0.5ZM-0.5 234.592V236.589H0.5V234.592H-0.5ZM-0.5 238.585V240.582H0.5V238.585H-0.5ZM-0.5 242.578V244.575H0.5V242.578H-0.5ZM-0.5 246.571V248.568H0.5V246.571H-0.5ZM-0.5 250.564V252.561H0.5V250.564H-0.5ZM-0.5 254.557V256.554H0.5V254.557H-0.5ZM-0.5 258.55V260.547H0.5V258.55H-0.5ZM-0.5 262.543V264.54H0.5V262.543H-0.5ZM-0.5 266.536V268.533H0.5V266.536H-0.5ZM-0.5 270.529V272.526H0.5V270.529H-0.5ZM-0.5 274.522V276.519H0.5V274.522H-0.5ZM-0.5 278.515V280.512H0.5V278.515H-0.5ZM-0.5 282.509V284.505H0.5V282.509H-0.5ZM-0.5 286.502V287.5H0.5V286.502H-0.5ZM0 288H0.998264V287H0V288ZM2.99479 288H4.99132V287H2.99479V288ZM6.98785 288H8.98438V287H6.98785V288ZM10.9809 288H12.9774V287H10.9809V288ZM14.974 288H16.9705V287H14.974V288ZM18.967 288H20.9635V287H18.967V288ZM22.9601 288H24.9566V287H22.9601V288ZM26.9531 288H28.9497V287H26.9531V288ZM30.9462 288H32.9427V287H30.9462V288ZM34.9392 288H36.9358V287H34.9392V288ZM38.9323 288H40.9288V287H38.9323V288ZM42.9254 288H44.9219V287H42.9254V288ZM46.9184 288H48.9149V287H46.9184V288ZM50.9115 288H52.908V287H50.9115V288ZM54.9045 288H56.9011V287H54.9045V288ZM58.8976 288H60.8941V287H58.8976V288ZM62.8906 288H64.8872V287H62.8906V288ZM66.8837 288H68.8802V287H66.8837V288ZM70.8768 288H72.8733V287H70.8768V288ZM74.8698 288H76.8663V287H74.8698V288ZM78.8629 288H80.8594V287H78.8629V288ZM82.8559 288H84.8525V287H82.8559V288ZM86.849 288H88.8455V287H86.849V288ZM90.842 288H92.8386V287H90.842V288ZM94.8351 288H96.8316V287H94.8351V288ZM98.8282 288H100.825V287H98.8282V288ZM102.821 288H104.818V287H102.821V288ZM106.814 288H108.811V287H106.814V288ZM110.807 288H112.804V287H110.807V288ZM114.8 288H116.797V287H114.8V288ZM118.793 288H120.79V287H118.793V288ZM122.786 288H124.783V287H122.786V288ZM126.78 288H128.776V287H126.78V288ZM130.773 288H132.769V287H130.773V288ZM134.766 288H136.762V287H134.766V288ZM138.759 288H140.755V287H138.759V288ZM142.752 288H144.748V287H142.752V288ZM146.745 288H148.741V287H146.745V288ZM150.738 288H152.734V287H150.738V288ZM154.731 288H156.727V287H154.731V288ZM158.724 288H160.72V287H158.724V288ZM162.717 288H164.713V287H162.717V288ZM166.71 288H168.706V287H166.71V288ZM170.703 288H172.7V287H170.703V288ZM174.696 288H176.693V287H174.696V288ZM178.689 288H180.686V287H178.689V288ZM182.682 288H184.679V287H182.682V288ZM186.675 288H188.672V287H186.675V288ZM190.668 288H191.667V287H190.668V288ZM192.167 287.5V286.502H191.167V287.5H192.167ZM192.167 284.505V282.509H191.167V284.505H192.167ZM192.167 280.512V278.516H191.167V280.512H192.167ZM192.167 276.519V274.523H191.167V276.519H192.167ZM192.167 272.526V270.53H191.167V272.526H192.167ZM192.167 268.533V266.536H191.167V268.533H192.167ZM192.167 264.54V262.543H191.167V264.54H192.167ZM192.167 260.547V258.55H191.167V260.547H192.167ZM192.167 256.554V254.557H191.167V256.554H192.167ZM192.167 252.561V250.564H191.167V252.561H192.167ZM192.167 248.568V246.571H191.167V248.568H192.167ZM192.167 244.575V242.578H191.167V244.575H192.167ZM192.167 240.582V238.585H191.167V240.582H192.167ZM192.167 236.589V234.592H191.167V236.589H192.167ZM192.167 232.595V230.599H191.167V232.595H192.167ZM192.167 228.602V226.606H191.167V228.602H192.167ZM192.167 224.609V222.613H191.167V224.609H192.167ZM192.167 220.616V218.62H191.167V220.616H192.167ZM192.167 216.623V214.627H191.167V216.623H192.167ZM192.167 212.63V210.634H191.167V212.63H192.167ZM192.167 208.637V206.641H191.167V208.637H192.167ZM192.167 204.644V202.648H191.167V204.644H192.167ZM192.167 200.651V198.654H191.167V200.651H192.167ZM192.167 196.658V194.661H191.167V196.658H192.167ZM192.167 192.665V190.668H191.167V192.665H192.167ZM192.167 188.672V186.675H191.167V188.672H192.167ZM192.167 184.679V182.682H191.167V184.679H192.167ZM192.167 180.686V178.689H191.167V180.686H192.167ZM192.167 176.693V174.696H191.167V176.693H192.167ZM192.167 172.7V170.703H191.167V172.7H192.167ZM192.167 168.707V166.71H191.167V168.707H192.167ZM192.167 164.713V162.717H191.167V164.713H192.167ZM192.167 160.72V158.724H191.167V160.72H192.167ZM192.167 156.727V154.731H191.167V156.727H192.167ZM192.167 152.734V150.738H191.167V152.734H192.167ZM192.167 148.741V146.745H191.167V148.741H192.167ZM192.167 144.748V142.752H191.167V144.748H192.167ZM192.167 140.755V138.759H191.167V140.755H192.167ZM192.167 136.762V134.766H191.167V136.762H192.167ZM192.167 132.769V130.773H191.167V132.769H192.167ZM192.167 128.776V126.78H191.167V128.776H192.167ZM192.167 124.783V122.787H191.167V124.783H192.167ZM192.167 120.79V118.794H191.167V120.79H192.167ZM192.167 116.797V114.8H191.167V116.797H192.167ZM192.167 112.804V110.807H191.167V112.804H192.167ZM192.167 108.811V106.814H191.167V108.811H192.167ZM192.167 104.818V102.821H191.167V104.818H192.167ZM192.167 100.825V98.8283H191.167V100.825H192.167ZM192.167 96.8318V95.8333H191.167V96.8318H192.167ZM192.167 95.8333C192.167 95.4996 192.165 95.1662 192.162 94.8333L191.162 94.8434C191.165 95.173 191.167 95.503 191.167 95.8333H192.167ZM192.121 92.8404C192.101 92.1777 192.074 91.5167 192.04 90.8574L191.042 90.9083C191.075 91.5608 191.102 92.215 191.122 92.8709L192.121 92.8404ZM191.918 88.864C191.871 88.2014 191.817 87.5406 191.756 86.8818L190.76 86.9735C190.821 87.6256 190.874 88.2796 190.921 88.9354L191.918 88.864ZM191.553 84.9007C191.478 84.2395 191.397 83.5803 191.309 82.9232L190.318 83.056C190.405 83.7063 190.486 84.3586 190.559 85.013L191.553 84.9007ZM191.025 80.9565C190.923 80.2982 190.814 79.642 190.699 78.9881L189.714 79.1618C189.828 79.8089 189.936 80.4582 190.037 81.1097L191.025 80.9565ZM190.333 77.0333C190.204 76.3807 190.068 75.7304 189.926 75.0826L188.949 75.2971C189.09 75.9381 189.224 76.5815 189.352 77.2273L190.333 77.0333ZM189.479 73.1421C189.323 72.4966 189.161 71.8536 188.992 71.2132L188.025 71.4681C188.192 72.1017 188.353 72.738 188.507 73.3768L189.479 73.1421ZM188.464 69.291C188.281 68.6529 188.092 68.0176 187.897 67.385L186.941 67.68C187.135 68.3059 187.322 68.9346 187.502 69.566L188.464 69.291ZM187.289 65.4862C187.08 64.8558 186.865 64.2282 186.643 63.6036L185.701 63.9381C185.92 64.5562 186.133 65.1772 186.34 65.801L187.289 65.4862ZM185.957 61.7341C185.722 61.1125 185.481 60.494 185.233 59.8787L184.305 60.2521C184.55 60.861 184.789 61.4731 185.022 62.0882L185.957 61.7341ZM184.471 58.0409C184.21 57.4294 183.942 56.8211 183.669 56.2162L182.758 56.6278C183.028 57.2265 183.293 57.8284 183.551 58.4335L184.471 58.0409ZM182.831 54.4114C182.545 53.8116 182.253 53.2151 181.955 52.6222L181.061 53.0713C181.356 53.6581 181.646 54.2483 181.929 54.8419L182.831 54.4114ZM181.042 50.8527C180.732 50.2657 180.415 49.6823 180.093 49.1025L179.219 49.5883C179.538 50.162 179.851 50.7394 180.158 51.3203L181.042 50.8527ZM179.108 47.3717C178.773 46.7984 178.433 46.2288 178.087 45.663L177.234 46.1846C177.576 46.7444 177.913 47.3081 178.244 47.8755L179.108 47.3717ZM177.031 43.974C176.673 43.415 176.309 42.8598 175.941 42.3087L175.11 42.865C175.475 43.4104 175.834 43.9598 176.188 44.5131L177.031 43.974ZM174.815 40.6652C174.435 40.1212 174.049 39.5814 173.657 39.0457L172.85 39.6358C173.237 40.1659 173.619 40.7002 173.996 41.2385L174.815 40.6652ZM172.466 37.4505C172.063 36.9226 171.655 36.399 171.242 35.8798L170.459 36.5026C170.868 37.0165 171.272 37.5346 171.671 38.0571L172.466 37.4505ZM169.986 34.3352C169.562 33.8243 169.132 33.3179 168.698 32.8161L167.942 33.4706C168.372 33.9672 168.797 34.4684 169.216 34.9739L169.986 34.3352ZM167.379 31.3242C166.935 30.8314 166.485 30.3431 166.03 29.8596L165.302 30.5445C165.752 31.0231 166.197 31.5063 166.637 31.9941L167.379 31.3242ZM164.652 28.423C164.187 27.9489 163.718 27.4795 163.244 27.0151L162.544 27.7294C163.013 28.1891 163.478 28.6536 163.937 29.1228L164.652 28.423ZM161.807 25.6363C161.324 25.1817 160.835 24.732 160.342 24.2873L159.673 25.0298C160.16 25.4699 160.644 25.9149 161.122 26.3649L161.807 25.6363ZM158.851 22.9689C158.349 22.5345 157.842 22.1052 157.332 21.681L156.693 22.4504C157.198 22.8702 157.699 23.295 158.196 23.725L158.851 22.9689ZM155.787 20.4252C155.268 20.0118 154.744 19.6037 154.216 19.201L153.61 19.996C154.132 20.3946 154.65 20.7984 155.164 21.2075L155.787 20.4252ZM152.621 18.0095C152.085 17.618 151.546 17.2319 151.002 16.8512L150.428 17.6705C150.967 18.0473 151.501 18.4294 152.031 18.8169L152.621 18.0095ZM149.358 15.7262C148.807 15.3572 148.252 14.9938 147.693 14.636L147.154 15.4782C147.707 15.8324 148.256 16.192 148.802 16.5572L149.358 15.7262ZM146.004 13.5795C145.438 13.2336 144.868 12.8935 144.295 12.5591L143.791 13.423C144.359 13.7539 144.922 14.0905 145.482 14.4327L146.004 13.5795ZM142.564 11.5736C141.984 11.2514 141.401 10.935 140.814 10.6244L140.346 11.5084C140.927 11.8157 141.505 12.1288 142.078 12.4477L142.564 11.5736ZM139.045 9.71179C138.452 9.41371 137.855 9.12156 137.255 8.83543L136.825 9.73802C137.418 10.0212 138.009 10.3103 138.595 10.6052L139.045 9.71179ZM135.451 7.9975C134.846 7.72423 134.237 7.45702 133.626 7.19595L133.233 8.11565C133.838 8.37399 134.44 8.6384 135.039 8.90883L135.451 7.9975ZM131.788 6.43385C131.173 6.18613 130.554 5.94458 129.933 5.70927L129.579 6.6445C130.194 6.87735 130.806 7.11637 131.415 7.3615L131.788 6.43385ZM128.063 5.02371C127.438 4.80203 126.811 4.5866 126.18 4.37751L125.866 5.32667C126.49 5.53357 127.111 5.74675 127.729 5.96611L128.063 5.02371ZM124.282 3.76967C123.649 3.57443 123.014 3.38553 122.376 3.20304L122.101 4.16449C122.732 4.34507 123.361 4.53199 123.987 4.72519L124.282 3.76967ZM120.454 2.67489C119.813 2.5061 119.17 2.34373 118.525 2.18787L118.29 3.15993C118.929 3.31417 119.565 3.47484 120.199 3.64187L120.454 2.67489ZM116.584 1.74063C115.936 1.59842 115.286 1.46272 114.633 1.33361L114.439 2.3146C115.085 2.44236 115.729 2.57664 116.37 2.71737L116.584 1.74063ZM112.679 0.967911C112.025 0.852583 111.369 0.74385 110.71 0.641785L110.557 1.62998C111.208 1.73098 111.858 1.83858 112.505 1.95271L112.679 0.967911ZM108.743 0.35767C108.086 0.269656 107.427 0.188266 106.766 0.113571L106.654 1.10725C107.308 1.18117 107.96 1.26172 108.611 1.34882L108.743 0.35767ZM104.785 -0.0895698C104.126 -0.150285 103.465 -0.204364 102.803 -0.251741L102.731 0.745713C103.387 0.792602 104.041 0.846123 104.693 0.906211L104.785 -0.0895698ZM100.809 -0.373695C100.15 -0.407243 99.4889 -0.434162 98.8262 -0.454388L98.7957 0.545147C99.4517 0.565165 100.106 0.591809 100.758 0.625012L100.809 -0.373695ZM96.8334 -0.494916C96.5004 -0.498303 96.1671 -0.5 95.8333 -0.5V0.5C96.1637 0.5 96.4937 0.50168 96.8232 0.505032L96.8334 -0.494916ZM0 287.5H-1V288.5H0V287.5ZM191.667 287.5V288.5H192.667V287.5H191.667ZM95.8333 -1C95.4979 -1 95.1628 -0.998294 94.8282 -0.99489L94.8485 1.00501C95.1764 1.00167 95.5047 1 95.8333 1V-1ZM92.8252 -0.954155C92.1591 -0.933826 91.4947 -0.906769 90.832 -0.873049L90.9337 1.12437C91.5828 1.09134 92.2336 1.06483 92.8862 1.04491L92.8252 -0.954155ZM88.8284 -0.750469C88.1623 -0.702848 87.4981 -0.64849 86.8359 -0.587462L87.0194 1.4041C87.6681 1.34433 88.3186 1.29108 88.971 1.24444L88.8284 -0.750469ZM84.8446 -0.383271C84.18 -0.30819 83.5173 -0.226379 82.8568 -0.137909L83.1224 1.84439C83.7692 1.75775 84.4182 1.67762 85.0691 1.60409L84.8446 -0.383271ZM80.8799 0.147682C80.2181 0.250277 79.5586 0.359575 78.9013 0.475503L79.2486 2.4451C79.8923 2.33158 80.5382 2.22455 81.1863 2.12407L80.8799 0.147682ZM76.9362 0.843108C76.2802 0.972887 75.6266 1.10929 74.9754 1.25225L75.4043 3.20573C76.0419 3.06574 76.682 2.93217 77.3244 2.80508L76.9362 0.843108ZM73.0247 1.70182C72.3758 1.8585 71.7295 2.02171 71.0857 2.19139L71.5955 4.12534C72.2258 3.95919 72.8588 3.79937 73.4942 3.64595L73.0247 1.70182ZM69.1535 2.7223C68.5121 2.90574 67.8734 3.09563 67.2376 3.2919L67.8274 5.20294C68.4501 5.01076 69.0754 4.82482 69.7035 4.6452L69.1535 2.7223ZM65.3288 3.90291C64.6951 4.11309 64.0643 4.32965 63.4364 4.55249L64.1054 6.43729C64.7202 6.21909 65.3379 6.00704 65.9584 5.80123L65.3288 3.90291ZM61.5571 5.24163C60.9323 5.47817 60.3105 5.72098 59.6919 5.96999L60.4388 7.82531C61.0445 7.58147 61.6533 7.34371 62.2652 7.11209L61.5571 5.24163ZM57.8446 6.73608C57.2298 6.99851 56.6184 7.26711 56.0103 7.54181L56.8337 9.36446C57.4292 9.09547 58.0279 8.83245 58.6298 8.57547L57.8446 6.73608ZM54.1962 8.38411C53.5932 8.67173 52.9936 8.9654 52.3976 9.26504L53.2959 11.0519C53.8796 10.7585 54.4667 10.4709 55.0572 10.1893L54.1962 8.38411ZM50.6189 10.1824C50.0289 10.4946 49.4424 10.8126 48.8596 11.1365L49.8312 12.8847C50.4019 12.5675 50.9762 12.256 51.5541 11.9503L50.6189 10.1824ZM47.1198 12.1272C46.5435 12.4633 45.9709 12.8052 45.4023 13.1528L46.4453 14.8593C47.0023 14.5189 47.563 14.184 48.1274 13.8548L47.1198 12.1272ZM43.7045 14.2148C43.1425 14.5745 42.5845 14.9398 42.0305 15.3107L43.1432 16.9726C43.6857 16.6094 44.2322 16.2516 44.7826 15.8993L43.7045 14.2148ZM40.3785 16.4415C39.8317 16.8242 39.2891 17.2123 38.7507 17.6058L39.9309 19.2205C40.4582 18.835 40.9897 18.4549 41.5252 18.0802L40.3785 16.4415ZM37.1472 18.8034C36.6166 19.2083 36.0903 19.6185 35.5684 20.034L36.8141 21.5987C37.3252 21.1917 37.8407 20.79 38.3604 20.3934L37.1472 18.8034ZM34.0158 21.2963C33.5023 21.7226 32.9933 22.1542 32.4889 22.5908L33.7978 24.103C34.2919 23.6753 34.7904 23.2526 35.2933 22.8351L34.0158 21.2963ZM30.9893 23.916C30.4939 24.363 30.0031 24.815 29.5171 25.272L30.887 26.7291C31.3631 26.2815 31.8438 25.8388 32.329 25.401L30.9893 23.916ZM28.0731 26.6579C27.5965 27.1247 27.1248 27.5965 26.6579 28.073L28.0866 29.4726C28.5438 29.0059 29.0059 28.5438 29.4727 28.0865L28.0731 26.6579ZM25.272 29.517C24.8151 30.0031 24.363 30.4938 23.9161 30.9893L25.401 32.329C25.8388 31.8438 26.2815 31.3631 26.7291 30.887L25.272 29.517ZM22.5908 32.4888C22.1542 32.9932 21.7227 33.5022 21.2963 34.0157L22.8351 35.2933C23.2527 34.7904 23.6753 34.2918 24.103 33.7978L22.5908 32.4888ZM20.034 35.5683C19.6185 36.0902 19.2083 36.6165 18.8035 37.1471L20.3935 38.3603C20.79 37.8406 21.1918 37.3252 21.5987 36.814L20.034 35.5683ZM17.6059 38.7506C17.2123 39.289 16.8242 39.8317 16.4416 40.3784L18.0802 41.5251C18.4549 40.9896 18.8351 40.4581 19.2205 39.9308L17.6059 38.7506ZM15.3107 42.0305C14.9398 42.5845 14.5745 43.1425 14.2148 43.7044L15.8994 44.7826C16.2516 44.2322 16.6094 43.6857 16.9726 43.1431L15.3107 42.0305ZM13.1528 45.4022C12.8052 45.9709 12.4633 46.5434 12.1272 47.1198L13.8549 48.1274C14.184 47.5629 14.5189 47.0022 14.8593 46.4453L13.1528 45.4022ZM11.1366 48.8596C10.8127 49.4423 10.4946 50.0288 10.1825 50.6189L11.9504 51.5541C12.256 50.9762 12.5675 50.4019 12.8847 49.8312L11.1366 48.8596ZM9.26507 52.3975C8.96543 52.9936 8.67176 53.5931 8.38414 54.1961L10.1893 55.0571C10.471 54.4666 10.7585 53.8795 11.052 53.2958L9.26507 52.3975ZM7.54184 56.0103C7.26714 56.6184 6.99853 57.2298 6.7361 57.8445L8.57549 58.6298C8.83247 58.0278 9.09549 57.4291 9.36449 56.8336L7.54184 56.0103ZM5.97002 59.6919C5.721 60.3105 5.47819 60.9322 5.24165 61.557L7.11212 62.2651C7.34373 61.6533 7.58149 61.0445 7.82533 60.4388L5.97002 59.6919ZM4.55251 63.4363C4.32967 64.0642 4.11311 64.695 3.90293 65.3288L5.80125 65.9584C6.00706 65.3378 6.2191 64.7201 6.43731 64.1053L4.55251 63.4363ZM3.29191 67.2375C3.09565 67.8734 2.90576 68.5121 2.72232 69.1534L4.64521 69.7034C4.82484 69.0754 5.01078 68.45 5.20295 67.8274L3.29191 67.2375ZM2.19141 71.0857C2.02173 71.7294 1.85851 72.3758 1.70183 73.0247L3.64596 73.4941C3.79939 72.8587 3.95921 72.2258 4.12535 71.5954L2.19141 71.0857ZM1.25226 74.9754C1.1093 75.6265 0.972898 76.2802 0.843118 76.9362L2.80509 77.3243C2.93218 76.6819 3.06575 76.0419 3.20574 75.4042L1.25226 74.9754ZM0.47551 78.9012C0.359581 79.5585 0.250283 80.2181 0.147687 80.8799L2.12408 81.1863C2.22455 80.5382 2.33159 79.8923 2.44511 79.2486L0.47551 78.9012ZM-0.137905 82.8568C-0.226376 83.5173 -0.308187 84.1799 -0.383269 84.8446L1.60409 85.0691C1.67763 84.4181 1.75775 83.7692 1.84439 83.1223L-0.137905 82.8568ZM-0.58746 86.8359C-0.648489 87.4981 -0.702847 88.1623 -0.750468 88.8284L1.24444 88.971C1.29108 88.3186 1.34433 87.668 1.4041 87.0194L-0.58746 86.8359ZM-0.873049 90.832C-0.906769 91.4947 -0.933826 92.1591 -0.954155 92.8252L1.04491 92.8862C1.06483 92.2337 1.09133 91.5828 1.12437 90.9337L-0.873049 90.832ZM-0.99489 94.8282C-0.998294 95.1628 -1 95.4979 -1 95.8333H1C1 95.5047 1.00167 95.1764 1.00501 94.8485L-0.99489 94.8282ZM-1 95.8333V96.8316H1V95.8333H-1ZM-1 98.8281V100.825H1V98.8281H-1ZM-1 102.821V104.818H1V102.821H-1ZM-1 106.814V108.811H1V106.814H-1ZM-1 110.807V112.804H1V110.807H-1ZM-1 114.8V116.797H1V114.8H-1ZM-1 118.793V120.79H1V118.793H-1ZM-1 122.786V124.783H1V122.786H-1ZM-1 126.78V128.776H1V126.78H-1ZM-1 130.773V132.769H1V130.773H-1ZM-1 134.766V136.762H1V134.766H-1ZM-1 138.759V140.755H1V138.759H-1ZM-1 142.752V144.748H1V142.752H-1ZM-1 146.745V148.741H1V146.745H-1ZM-1 150.738V152.734H1V150.738H-1ZM-1 154.731V156.727H1V154.731H-1ZM-1 158.724V160.721H1V158.724H-1ZM-1 162.717V164.714H1V162.717H-1ZM-1 166.71V168.707H1V166.71H-1ZM-1 170.703V172.7H1V170.703H-1ZM-1 174.696V176.693H1V174.696H-1ZM-1 178.689V180.686H1V178.689H-1ZM-1 182.682V184.679H1V182.682H-1ZM-1 186.675V188.672H1V186.675H-1ZM-1 190.668V192.665H1V190.668H-1ZM-1 194.661V196.658H1V194.661H-1ZM-1 198.655V200.651H1V198.655H-1ZM-1 202.648V204.644H1V202.648H-1ZM-1 206.641V208.637H1V206.641H-1ZM-1 210.634V212.63H1V210.634H-1ZM-1 214.627V216.623H1V214.627H-1ZM-1 218.62V220.616H1V218.62H-1ZM-1 222.613V224.609H1V222.613H-1ZM-1 226.606V228.602H1V226.606H-1ZM-1 230.599V232.596H1V230.599H-1ZM-1 234.592V236.589H1V234.592H-1ZM-1 238.585V240.582H1V238.585H-1ZM-1 242.578V244.575H1V242.578H-1ZM-1 246.571V248.568H1V246.571H-1ZM-1 250.564V252.561H1V250.564H-1ZM-1 254.557V256.554H1V254.557H-1ZM-1 258.55V260.547H1V258.55H-1ZM-1 262.543V264.54H1V262.543H-1ZM-1 266.536V268.533H1V266.536H-1ZM-1 270.529V272.526H1V270.529H-1ZM-1 274.522V276.519H1V274.522H-1ZM-1 278.515V280.512H1V278.515H-1ZM-1 282.509V284.505H1V282.509H-1ZM-1 286.502V287.5H1V286.502H-1ZM0 288.5H0.998264V286.5H0V288.5ZM2.99479 288.5H4.99132V286.5H2.99479V288.5ZM6.98785 288.5H8.98438V286.5H6.98785V288.5ZM10.9809 288.5H12.9774V286.5H10.9809V288.5ZM14.974 288.5H16.9705V286.5H14.974V288.5ZM18.967 288.5H20.9635V286.5H18.967V288.5ZM22.9601 288.5H24.9566V286.5H22.9601V288.5ZM26.9531 288.5H28.9497V286.5H26.9531V288.5ZM30.9462 288.5H32.9427V286.5H30.9462V288.5ZM34.9392 288.5H36.9358V286.5H34.9392V288.5ZM38.9323 288.5H40.9288V286.5H38.9323V288.5ZM42.9254 288.5H44.9219V286.5H42.9254V288.5ZM46.9184 288.5H48.9149V286.5H46.9184V288.5ZM50.9115 288.5H52.908V286.5H50.9115V288.5ZM54.9045 288.5H56.9011V286.5H54.9045V288.5ZM58.8976 288.5H60.8941V286.5H58.8976V288.5ZM62.8906 288.5H64.8872V286.5H62.8906V288.5ZM66.8837 288.5H68.8802V286.5H66.8837V288.5ZM70.8768 288.5H72.8733V286.5H70.8768V288.5ZM74.8698 288.5H76.8663V286.5H74.8698V288.5ZM78.8629 288.5H80.8594V286.5H78.8629V288.5ZM82.8559 288.5H84.8525V286.5H82.8559V288.5ZM86.849 288.5H88.8455V286.5H86.849V288.5ZM90.842 288.5H92.8386V286.5H90.842V288.5ZM94.8351 288.5H96.8316V286.5H94.8351V288.5ZM98.8282 288.5H100.825V286.5H98.8282V288.5ZM102.821 288.5H104.818V286.5H102.821V288.5ZM106.814 288.5H108.811V286.5H106.814V288.5ZM110.807 288.5H112.804V286.5H110.807V288.5ZM114.8 288.5H116.797V286.5H114.8V288.5ZM118.793 288.5H120.79V286.5H118.793V288.5ZM122.786 288.5H124.783V286.5H122.786V288.5ZM126.78 288.5H128.776V286.5H126.78V288.5ZM130.773 288.5H132.769V286.5H130.773V288.5ZM134.766 288.5H136.762V286.5H134.766V288.5ZM138.759 288.5H140.755V286.5H138.759V288.5ZM142.752 288.5H144.748V286.5H142.752V288.5ZM146.745 288.5H148.741V286.5H146.745V288.5ZM150.738 288.5H152.734V286.5H150.738V288.5ZM154.731 288.5H156.727V286.5H154.731V288.5ZM158.724 288.5H160.72V286.5H158.724V288.5ZM162.717 288.5H164.713V286.5H162.717V288.5ZM166.71 288.5H168.706V286.5H166.71V288.5ZM170.703 288.5H172.7V286.5H170.703V288.5ZM174.696 288.5H176.693V286.5H174.696V288.5ZM178.689 288.5H180.686V286.5H178.689V288.5ZM182.682 288.5H184.679V286.5H182.682V288.5ZM186.675 288.5H188.672V286.5H186.675V288.5ZM190.668 288.5H191.667V286.5H190.668V288.5ZM192.667 287.5V286.502H190.667V287.5H192.667ZM192.667 284.505V282.509H190.667V284.505H192.667ZM192.667 280.512V278.516H190.667V280.512H192.667ZM192.667 276.519V274.523H190.667V276.519H192.667ZM192.667 272.526V270.53H190.667V272.526H192.667ZM192.667 268.533V266.536H190.667V268.533H192.667ZM192.667 264.54V262.543H190.667V264.54H192.667ZM192.667 260.547V258.55H190.667V260.547H192.667ZM192.667 256.554V254.557H190.667V256.554H192.667ZM192.667 252.561V250.564H190.667V252.561H192.667ZM192.667 248.568V246.571H190.667V248.568H192.667ZM192.667 244.575V242.578H190.667V244.575H192.667ZM192.667 240.582V238.585H190.667V240.582H192.667ZM192.667 236.589V234.592H190.667V236.589H192.667ZM192.667 232.595V230.599H190.667V232.595H192.667ZM192.667 228.602V226.606H190.667V228.602H192.667ZM192.667 224.609V222.613H190.667V224.609H192.667ZM192.667 220.616V218.62H190.667V220.616H192.667ZM192.667 216.623V214.627H190.667V216.623H192.667ZM192.667 212.63V210.634H190.667V212.63H192.667ZM192.667 208.637V206.641H190.667V208.637H192.667ZM192.667 204.644V202.648H190.667V204.644H192.667ZM192.667 200.651V198.654H190.667V200.651H192.667ZM192.667 196.658V194.661H190.667V196.658H192.667ZM192.667 192.665V190.668H190.667V192.665H192.667ZM192.667 188.672V186.675H190.667V188.672H192.667ZM192.667 184.679V182.682H190.667V184.679H192.667ZM192.667 180.686V178.689H190.667V180.686H192.667ZM192.667 176.693V174.696H190.667V176.693H192.667ZM192.667 172.7V170.703H190.667V172.7H192.667ZM192.667 168.707V166.71H190.667V168.707H192.667ZM192.667 164.713V162.717H190.667V164.713H192.667ZM192.667 160.72V158.724H190.667V160.72H192.667ZM192.667 156.727V154.731H190.667V156.727H192.667ZM192.667 152.734V150.738H190.667V152.734H192.667ZM192.667 148.741V146.745H190.667V148.741H192.667ZM192.667 144.748V142.752H190.667V144.748H192.667ZM192.667 140.755V138.759H190.667V140.755H192.667ZM192.667 136.762V134.766H190.667V136.762H192.667ZM192.667 132.769V130.773H190.667V132.769H192.667ZM192.667 128.776V126.78H190.667V128.776H192.667ZM192.667 124.783V122.787H190.667V124.783H192.667ZM192.667 120.79V118.794H190.667V120.79H192.667ZM192.667 116.797V114.8H190.667V116.797H192.667ZM192.667 112.804V110.807H190.667V112.804H192.667ZM192.667 108.811V106.814H190.667V108.811H192.667ZM192.667 104.818V102.821H190.667V104.818H192.667ZM192.667 100.825V98.8283H190.667V100.825H192.667ZM192.667 96.8318V95.8333H190.667V96.8318H192.667ZM192.667 95.8333C192.667 95.4979 192.665 95.1628 192.662 94.8282L190.662 94.8485C190.665 95.1764 190.667 95.5047 190.667 95.8333H192.667ZM192.621 92.8252C192.6 92.1591 192.573 91.4947 192.54 90.832L190.542 90.9337C190.575 91.5828 190.602 92.2336 190.622 92.8862L192.621 92.8252ZM192.417 88.8284C192.37 88.1623 192.315 87.4981 192.254 86.8359L190.263 87.0194C190.322 87.6681 190.376 88.3186 190.422 88.971L192.417 88.8284ZM192.05 84.8446C191.975 84.18 191.893 83.5173 191.805 82.8568L189.822 83.1224C189.909 83.7692 189.989 84.4182 190.063 85.0691L192.05 84.8446ZM191.519 80.8799C191.416 80.2181 191.307 79.5586 191.191 78.9013L189.222 79.2486C189.335 79.8923 189.442 80.5382 189.543 81.1863L191.519 80.8799ZM190.824 76.9362C190.694 76.2802 190.557 75.6266 190.414 74.9754L188.461 75.4043C188.601 76.0419 188.735 76.682 188.862 77.3244L190.824 76.9362ZM189.965 73.0247C189.808 72.3758 189.645 71.7295 189.475 71.0857L187.541 71.5955C187.707 72.2258 187.867 72.8588 188.021 73.4942L189.965 73.0247ZM188.944 69.1535C188.761 68.5121 188.571 67.8734 188.375 67.2376L186.464 67.8274C186.656 68.4501 186.842 69.0754 187.021 69.7035L188.944 69.1535ZM187.764 65.3288C187.554 64.6951 187.337 64.0643 187.114 63.4364L185.229 64.1054C185.448 64.7202 185.66 65.3379 185.865 65.9584L187.764 65.3288ZM186.425 61.5571C186.189 60.9323 185.946 60.3105 185.697 59.6919L183.841 60.4388C184.085 61.0445 184.323 61.6533 184.555 62.2652L186.425 61.5571ZM184.931 57.8446C184.668 57.2298 184.4 56.6184 184.125 56.0103L182.302 56.8337C182.571 57.4292 182.834 58.0279 183.091 58.6298L184.931 57.8446ZM183.283 54.1962C182.995 53.5932 182.701 52.9936 182.402 52.3976L180.615 53.2959C180.908 53.8796 181.196 54.4667 181.477 55.0572L183.283 54.1962ZM181.484 50.6189C181.172 50.0289 180.854 49.4424 180.53 48.8596L178.782 49.8312C179.099 50.4019 179.411 50.9762 179.716 51.5541L181.484 50.6189ZM179.539 47.1198C179.203 46.5435 178.861 45.9709 178.514 45.4023L176.807 46.4453C177.148 47.0023 177.483 47.563 177.812 48.1274L179.539 47.1198ZM177.452 43.7045C177.092 43.1425 176.727 42.5845 176.356 42.0305L174.694 43.1432C175.057 43.6857 175.415 44.2322 175.767 44.7826L177.452 43.7045ZM175.225 40.3785C174.843 39.8317 174.454 39.2891 174.061 38.7507L172.446 39.9309C172.832 40.4582 173.212 40.9897 173.587 41.5252L175.225 40.3785ZM172.863 37.1472C172.458 36.6166 172.048 36.0903 171.633 35.5684L170.068 36.8141C170.475 37.3252 170.877 37.8407 171.273 38.3604L172.863 37.1472ZM170.37 34.0158C169.944 33.5023 169.513 32.9933 169.076 32.4889L167.564 33.7978C167.991 34.2919 168.414 34.7904 168.832 35.2933L170.37 34.0158ZM167.751 30.9893C167.304 30.4939 166.852 30.0031 166.395 29.5171L164.938 30.887C165.385 31.3631 165.828 31.8438 166.266 32.329L167.751 30.9893ZM165.009 28.0731C164.542 27.5965 164.07 27.1248 163.594 26.6579L162.194 28.0866C162.661 28.5438 163.123 29.0059 163.58 29.4727L165.009 28.0731ZM162.15 25.272C161.664 24.8151 161.173 24.363 160.677 23.9161L159.338 25.401C159.823 25.8388 160.304 26.2815 160.78 26.7291L162.15 25.272ZM159.178 22.5908C158.673 22.1542 158.164 21.7227 157.651 21.2963L156.373 22.8351C156.876 23.2527 157.375 23.6753 157.869 24.103L159.178 22.5908ZM156.098 20.034C155.576 19.6185 155.05 19.2083 154.52 18.8035L153.306 20.3935C153.826 20.79 154.341 21.1918 154.853 21.5987L156.098 20.034ZM152.916 17.6059C152.378 17.2123 151.835 16.8242 151.288 16.4416L150.142 18.0802C150.677 18.4549 151.209 18.8351 151.736 19.2205L152.916 17.6059ZM149.636 15.3107C149.082 14.9398 148.524 14.5745 147.962 14.2148L146.884 15.8994C147.434 16.2516 147.981 16.6094 148.524 16.9726L149.636 15.3107ZM146.264 13.1528C145.696 12.8052 145.123 12.4633 144.547 12.1272L143.539 13.8549C144.104 14.184 144.664 14.5189 145.221 14.8593L146.264 13.1528ZM142.807 11.1366C142.224 10.8127 141.638 10.4946 141.048 10.1825L140.113 11.9504C140.69 12.256 141.265 12.5675 141.836 12.8847L142.807 11.1366ZM139.269 9.26507C138.673 8.96543 138.074 8.67176 137.471 8.38414L136.61 10.1893C137.2 10.471 137.787 10.7585 138.371 11.052L139.269 9.26507ZM135.656 7.54184C135.048 7.26714 134.437 6.99853 133.822 6.7361L133.037 8.57549C133.639 8.83247 134.238 9.09549 134.833 9.36449L135.656 7.54184ZM131.975 5.97002C131.356 5.721 130.734 5.47819 130.11 5.24165L129.402 7.11212C130.013 7.34373 130.622 7.58149 131.228 7.82533L131.975 5.97002ZM128.23 4.55251C127.602 4.32967 126.972 4.11311 126.338 3.90293L125.708 5.80125C126.329 6.00706 126.947 6.2191 127.561 6.43731L128.23 4.55251ZM124.429 3.29191C123.793 3.09565 123.155 2.90576 122.513 2.72232L121.963 4.64521C122.591 4.82484 123.217 5.01078 123.839 5.20295L124.429 3.29191ZM120.581 2.19141C119.937 2.02173 119.291 1.85851 118.642 1.70183L118.173 3.64596C118.808 3.79939 119.441 3.95921 120.071 4.12535L120.581 2.19141ZM116.691 1.25226C116.04 1.1093 115.386 0.972898 114.73 0.843118L114.342 2.80509C114.985 2.93218 115.625 3.06575 116.262 3.20574L116.691 1.25226ZM112.765 0.47551C112.108 0.359581 111.449 0.250283 110.787 0.147687L110.48 2.12408C111.128 2.22455 111.774 2.33159 112.418 2.44511L112.765 0.47551ZM108.81 -0.137905C108.149 -0.226376 107.487 -0.308187 106.822 -0.383269L106.598 1.60409C107.249 1.67763 107.897 1.75775 108.544 1.84439L108.81 -0.137905ZM104.831 -0.58746C104.169 -0.648489 103.504 -0.702847 102.838 -0.750468L102.696 1.24444C103.348 1.29108 103.999 1.34433 104.647 1.4041L104.831 -0.58746ZM100.835 -0.873049C100.172 -0.906769 99.5076 -0.933826 98.8415 -0.954155L98.7805 1.04491C99.433 1.06483 100.084 1.09133 100.733 1.12437L100.835 -0.873049ZM96.8385 -0.99489C96.5038 -0.998294 96.1688 -1 95.8333 -1V1C96.162 1 96.4903 1.00167 96.8181 1.00501L96.8385 -0.99489Z" fill="#3A302A" mask="url(#path-1-inside-1_470_465)"/>
</svg>
